<svg width="267" height="226" viewBox="0 0 267 226" fill="none" xmlns="http://www.w3.org/2000/svg">
<g clip-path="url(#clip0_4_8)">
<path d="M112 -6.25849e-07C145.735 -1.02526 145.735 -1.02526 160 10C161.948 11.9747 163.717 13.9866 165.43 16.168C166.942 18.0826 166.942 18.0826 169.031 19.4375C173.965 23.3533 176.299 31.1222 178 37C178.33 36.34 178.66 35.68 179 35C179.66 35 180.32 35 181 35C181.111 34.2975 181.222 33.5949 181.336 32.8711C183.142 25.0627 186.983 18.0314 193.418 13.2227C195.213 11.941 195.213 11.941 196.938 9.5C199.759 6.08043 203.045 3.05497 207 0.999999C208.938 0.960937 208.938 0.960937 211 2C215.411 6.37674 217.351 10.716 219.25 16.5625C219.505 17.3044 219.76 18.0462 220.023 18.8105C225.547 35.1327 225.834 57.0445 219 73C219.554 72.7113 220.109 72.4225 220.68 72.125C221.404 71.7537 222.129 71.3825 222.875 71C223.594 70.6287 224.314 70.2575 225.055 69.875C227 69 227 69 229 69C229 68.34 229 67.68 229 67C239.448 62.9082 248.743 60.5689 260 61C260.726 80.2612 258.015 98.3671 250 116C249.34 116 248.68 116 248 116C247.727 116.722 247.453 117.444 247.172 118.188C244.095 125.573 240.323 131.157 234 136C233.196 136.969 232.391 137.939 231.562 138.938C229.108 141.871 226.608 144.153 223.668 146.566C221.822 148.085 221.822 148.085 219.812 150.5C215.147 154.647 208.381 159 202 159C202 159.66 202 160.32 202 161C191.487 165.358 182.408 167.399 171 168C170.546 167.196 170.093 166.391 169.625 165.562C168.253 162.911 168.253 162.911 166 162C165.07 160.306 164.141 158.612 163.219 156.914C161.919 154.873 160.494 153.358 158.75 151.688C157.389 150.357 157.389 150.357 156 149C156 148.34 156 147.68 156 147C155.175 146.732 154.35 146.464 153.5 146.188C151.128 145.383 148.774 144.527 146.438 143.625C140.723 141.453 134.852 139.757 129 138C129 137.34 129 136.68 129 136C127.824 135.66 127.824 135.66 126.625 135.312C118.046 132.206 110.868 127.783 103.75 122.125C102.987 121.538 102.224 120.952 101.438 120.348C97.1906 117.016 93.5559 113.613 90.2002 109.378C89.0277 107.855 89.0277 107.855 87 107C87 106.01 87 105.02 87 104C86.34 104 85.68 104 85 104C83.5328 102.288 82.1517 100.502 80.8125 98.6875C80.4168 98.1522 80.0212 97.6169 79.6135 97.0654C75.8201 91.8734 72.3569 86.4832 69 81C68.2371 90.8113 70.4827 99.6155 73 109C73.2849 110.082 73.5698 111.163 73.8633 112.277C74.7904 115.688 74.7904 115.688 76 119C76.66 119.33 77.32 119.66 78 120C78.896 121.454 79.7421 122.939 80.5625 124.438C84.0227 130.333 88.2769 135.089 93 140C93.7464 140.798 94.4927 141.596 95.2617 142.418C102.295 149.746 109.856 154.678 119 159C119 159.66 119 160.32 119 161C119.548 161.159 120.096 161.317 120.66 161.48C127.363 163.453 133.972 165.654 140.582 167.914C143.397 168.808 146.095 169.502 149 170C149 170.66 149 171.32 149 172C163.52 172 178.04 172 193 172C193 171.34 193 170.68 193 170C196.877 168.807 199.916 168 204 168C204 168.66 204 169.32 204 170C203.34 170 202.68 170 202 170C201.794 170.577 201.588 171.155 201.375 171.75C195.913 180.688 180.526 184.369 171.168 187.238C164.73 188.786 158.315 189.17 151.723 189.238C150.568 189.25 150.568 189.25 149.39 189.263C147.768 189.276 146.145 189.287 144.522 189.295C142.898 189.307 141.275 189.327 139.651 189.357C126.803 189.591 115.231 188.077 103 184C103 183.34 103 182.68 103 182C102.166 181.912 101.332 181.825 100.473 181.734C96.3283 180.858 93.1305 179.265 89.4375 177.25C88.791 176.915 88.1446 176.58 87.4785 176.234C83.3099 173.995 80.2389 171.512 77 168C74.2449 165.543 71.6414 163.781 68.3125 162.25C57.5934 157.114 48.625 147.718 42 138C42 137.34 42 136.68 42 136C41.0225 134.978 40.0194 133.98 39 133C38.34 132.01 37.68 131.02 37 130C37.2771 130.82 37.5543 131.64 37.8398 132.484C38.2021 133.562 38.5643 134.64 38.9375 135.75C39.2971 136.817 39.6568 137.885 40.0273 138.984C40.7798 141.317 41.4498 143.614 42 146C42.66 146 43.32 146 44 146C44.3867 146.797 44.7734 147.593 45.1719 148.414C49.0961 156.399 52.6048 162.754 59 169C60.1289 170.351 61.2536 171.705 62.375 173.062C64.6893 175.762 66.7351 177.64 69.875 179.312C73 181 73 181 74 184C75.9717 184.746 77.9809 185.394 80 186C82.819 187.146 85.5947 188.388 88.375 189.625C89.1111 189.95 89.8471 190.275 90.6055 190.609C92.4047 191.404 94.2025 192.202 96 193C96 193.66 96 194.32 96 195C96.5595 195.11 97.1189 195.219 97.6953 195.332C98.4971 195.491 99.2989 195.649 100.125 195.812C101.014 195.986 101.902 196.16 102.818 196.339C104.907 196.773 106.988 197.245 109.058 197.759C117.545 199.807 125.652 200.47 134.331 200.391C136.433 200.375 138.533 200.391 140.635 200.41C157.633 200.435 172.698 196.297 188 189C188.949 188.558 189.897 188.116 190.875 187.66C197.946 184.266 204.443 180.275 210.969 175.953C214 174 214 174 216.352 172.852C218.176 172.122 218.176 172.122 218.875 170.125C220.515 167.027 223.084 165.887 226 164C227.683 162.35 229.348 160.681 231 159C232.883 157.216 234.779 155.445 236.688 153.688C237.64 152.804 238.593 151.921 239.574 151.012C242 149 242 149 244 149C241.546 156.976 239.107 163.199 233 169C232.048 170.745 231.097 172.49 230.16 174.242C228.432 176.861 226.159 178.585 223.727 180.531C221.146 182.726 219.159 185.398 217 188C215.02 189.691 213.021 191.358 211 193C210.278 193.784 209.556 194.567 208.812 195.375C205.299 198.654 201.434 200.973 197.328 203.449C194.898 204.79 194.898 204.79 194 207C192.405 207.946 192.405 207.946 190.359 208.91C189.618 209.26 188.877 209.61 188.113 209.971C186.943 210.511 186.943 210.511 185.75 211.062C184.986 211.427 184.221 211.791 183.434 212.166C179.649 213.934 176.186 215.456 172 216C172 216.66 172 217.32 172 218C140.786 226.303 113.065 227.026 82 218C82 217.34 82 216.68 82 216C81.4173 215.853 80.8347 215.706 80.2344 215.555C71.2435 213.095 62.5533 209.783 56 203C54.7152 202.144 53.4023 201.329 52.0625 200.562C48.5046 198.402 45.8883 196.026 43 193C40.416 190.712 37.8174 188.442 35.207 186.184C33.1331 184.132 32.1841 182.609 31 180C30.2369 179.278 29.4737 178.556 28.6875 177.812C25.3443 174.314 21 169.08 21 164C20.34 163.67 19.68 163.34 19 163C10.2269 146.798 7.60567 130.455 7.6875 112.188C7.68966 111.53 7.69181 110.873 7.69403 110.195C7.76777 96.1551 8.23043 73.7696 19 63C19.99 62.505 19.99 62.505 21 62C21.2681 61.1131 21.5362 60.2262 21.8125 59.3125C23.9443 53.3659 28.5528 49.3388 33 45C33.4744 44.4921 33.9487 43.9842 34.4375 43.4609C37.6615 40.0522 40.5786 37.8088 45 36C45.66 36 46.32 36 47 36C46.4266 38.8672 46.1385 39.8615 44 42C43.01 42.495 43.01 42.495 42 43C41.2281 44.7407 41.2281 44.7407 40.625 46.875C39.5022 50.4658 38.2705 53.9817 36.9375 57.5C35.1708 62.2875 34.046 67.0114 33 72C32.67 72.33 32.34 72.66 32 73C31.899 75.6546 31.8603 78.2826 31.8672 80.9375C31.8662 81.7328 31.8653 82.528 31.8643 83.3474C31.8636 85.0321 31.8655 86.7167 31.8696 88.4014C31.875 90.989 31.8697 93.5764 31.8633 96.1641C31.8639 97.7969 31.8652 99.4297 31.8672 101.062C31.8652 101.842 31.8631 102.621 31.8611 103.424C31.5416 107.008 31.5416 107.008 33 110C33.0374 109.056 33.0748 108.113 33.1133 107.141C33.7396 94.9093 34.7992 79.0076 44 70C44.988 68.2003 44.988 68.2003 45.8125 66.25C47.2265 63.2594 48.6977 61.1161 51 58.75C54.4339 54.9719 55.546 50.8908 57.0078 46.0703C59.3339 38.8722 62.3517 33.0972 68 28C69.5181 26.1711 71.0053 24.3229 72.4727 22.4531C74.3007 20.7139 75.516 20.3197 78 20C82.108 21.1297 84.0468 23.0468 87 26C89.5002 28.2502 91.7928 29.9219 95 31C97.8693 30.6827 100.308 29.9174 103.035 28.9766C107.904 27.373 112.941 26.7504 118 26C117.476 24.8959 117.476 24.8959 116.941 23.7695C116.486 22.7937 116.031 21.8179 115.562 20.8125C115.11 19.8496 114.658 18.8866 114.191 17.8945C111.739 11.9361 111.889 6.35708 112 -6.25849e-07ZM128 39C127.34 40.32 126.68 41.64 126 43C128.515 45.5151 130.243 45.2472 133.652 45.5938C138.016 46.3489 141.961 48.2379 146 50C146.665 50.272 147.33 50.544 148.016 50.8242C150.74 51.9435 153.237 53.1453 155.75 54.6875C157.998 56.2519 157.998 56.2519 161 56C161.249 56.5878 161.498 57.1756 161.754 57.7812C163.174 60.3099 164.701 61.6677 166.938 63.5C169.732 65.7986 171.922 68.0299 174 71C176.032 70.3602 176.032 70.3602 178 69C178.812 66.4448 178.812 66.4448 179 64C178.34 64 177.68 64 177 64C176.732 63.2781 176.464 62.5562 176.188 61.8125C173.132 54.5763 168.885 50.7215 162 47C161.34 47 160.68 47 160 47C160 46.34 160 45.68 160 45C157.94 44.1824 155.877 43.3712 153.812 42.5625C152.09 41.8838 152.09 41.8838 150.332 41.1914C144.943 39.2646 140.413 38.884 134.688 38.9375C133.433 38.9465 132.179 38.9555 130.887 38.9648C129.934 38.9764 128.981 38.988 128 39ZM160.062 87.9375C158.171 93.3884 158.178 98.5688 160.375 103.938C161.812 107.008 161.812 107.008 164 109C166.414 109.584 166.414 109.584 169 109C171.576 107.311 171.576 107.311 173 104C173.808 97.5013 173.845 92.4782 170 87C168.834 85.6258 168.834 85.6258 165.625 85.625C161.975 85.6175 161.975 85.6175 160.062 87.9375ZM34 118C35 121 35 121 35 121L34 118ZM35 122C36 126 36 126 36 126L35 122Z" fill="#3EC400"/>
<path d="M47 36C46.4266 38.8672 46.1385 39.8615 44 42C43.34 42.33 42.68 42.66 42 43C41.2281 44.7407 41.2281 44.7407 40.625 46.875C39.5022 50.4658 38.2705 53.9817 36.9375 57.5C35.1708 62.2875 34.046 67.0114 33 72C32.67 72.33 32.34 72.66 32 73C31.899 75.6546 31.8603 78.2826 31.8672 80.9375C31.8662 81.7328 31.8653 82.528 31.8643 83.3474C31.8636 85.0321 31.8655 86.7167 31.8696 88.4014C31.875 90.989 31.8697 93.5764 31.8633 96.1641C31.8639 97.7969 31.8652 99.4297 31.8672 101.062C31.8652 101.842 31.8631 102.621 31.8611 103.424C31.5416 107.008 31.5416 107.008 33 110C33.0374 109.056 33.0748 108.113 33.1133 107.141C33.7396 94.9084 34.7996 79.0088 44 70C45.0927 68.1015 45.0927 68.1015 46 66.0625C48.7862 60.3101 48.7862 60.3101 51 58C51.99 58 52.98 58 54 58C53.6806 59.2838 53.6806 59.2838 53.3547 60.5935C51.1114 70.4883 50.563 79.8969 50.6638 90.0251C50.6875 92.5633 50.6843 95.1004 50.6777 97.6387C50.699 109.945 50.7935 122.618 56 134C56.3493 134.826 56.6987 135.653 57.0586 136.504C62.2845 149.495 62.2845 149.495 71 160C72.32 160 73.64 160 75 160C75.33 161.98 75.66 163.96 76 166C75.1221 165.555 75.1221 165.555 74.2266 165.102C72.2978 164.147 70.3386 163.255 68.375 162.375C57.6698 157.032 48.6813 147.8 42 138C42 137.34 42 136.68 42 136C41.0225 134.978 40.0194 133.98 39 133C38.34 132.01 37.68 131.02 37 130C37.2771 130.82 37.5543 131.64 37.8398 132.484C38.2021 133.562 38.5643 134.64 38.9375 135.75C39.2971 136.817 39.6568 137.885 40.0273 138.984C40.7798 141.317 41.4498 143.614 42 146C42.66 146 43.32 146 44 146C44.3867 146.797 44.7734 147.593 45.1719 148.414C49.0961 156.399 52.6048 162.754 59 169C60.1289 170.351 61.2536 171.705 62.375 173.062C64.6893 175.762 66.7351 177.64 69.875 179.312C73 181 73 181 74 184C75.9717 184.746 77.9809 185.394 80 186C82.819 187.146 85.5947 188.388 88.375 189.625C89.1111 189.95 89.8471 190.275 90.6055 190.609C92.4047 191.404 94.2025 192.202 96 193C96 193.66 96 194.32 96 195C96.5595 195.11 97.1189 195.219 97.6953 195.332C98.4971 195.491 99.2989 195.649 100.125 195.812C101.014 195.986 101.902 196.16 102.818 196.339C104.907 196.773 106.988 197.245 109.058 197.759C117.545 199.807 125.652 200.47 134.331 200.391C136.433 200.375 138.533 200.391 140.635 200.41C157.633 200.435 172.698 196.297 188 189C188.949 188.558 189.897 188.116 190.875 187.66C197.946 184.266 204.443 180.275 210.969 175.953C214 174 214 174 216.352 172.852C218.176 172.122 218.176 172.122 218.875 170.125C220.515 167.027 223.084 165.887 226 164C227.683 162.35 229.348 160.681 231 159C232.883 157.216 234.779 155.445 236.688 153.688C237.64 152.804 238.593 151.921 239.574 151.012C242 149 242 149 244 149C241.546 156.976 239.107 163.199 233 169C232.048 170.745 231.097 172.49 230.16 174.242C228.432 176.861 226.159 178.585 223.727 180.531C221.146 182.726 219.159 185.398 217 188C215.02 189.691 213.021 191.358 211 193C210.278 193.784 209.556 194.567 208.812 195.375C205.299 198.654 201.434 200.973 197.328 203.449C194.898 204.79 194.898 204.79 194 207C192.405 207.946 192.405 207.946 190.359 208.91C189.618 209.26 188.877 209.61 188.113 209.971C186.943 210.511 186.943 210.511 185.75 211.062C184.986 211.427 184.221 211.791 183.434 212.166C179.649 213.934 176.186 215.456 172 216C172 216.66 172 217.32 172 218C140.786 226.303 113.065 227.026 82 218C82 217.34 82 216.68 82 216C81.4173 215.853 80.8347 215.706 80.2344 215.555C71.2435 213.095 62.5533 209.783 56 203C54.7152 202.144 53.4023 201.329 52.0625 200.562C48.5046 198.402 45.8883 196.026 43 193C40.416 190.712 37.8174 188.442 35.207 186.184C33.1331 184.132 32.1841 182.609 31 180C30.2369 179.278 29.4737 178.556 28.6875 177.812C25.3443 174.314 21 169.08 21 164C20.34 163.67 19.68 163.34 19 163C10.2269 146.798 7.60567 130.455 7.6875 112.188C7.68966 111.53 7.69181 110.873 7.69403 110.195C7.76777 96.1551 8.23043 73.7696 19 63C19.66 62.67 20.32 62.34 21 62C21.2681 61.1131 21.5362 60.2262 21.8125 59.3125C23.9443 53.3659 28.5528 49.3388 33 45C33.4744 44.4921 33.9487 43.9842 34.4375 43.4609C37.8689 39.8329 41.6788 36 47 36ZM34 118C35 121 35 121 35 121L34 118ZM35 122C36 126 36 126 36 126L35 122Z" fill="#0976C6"/>
<path d="M112 -6.25849e-07C145.735 -1.02526 145.735 -1.02526 160 10C161.948 11.9747 163.717 13.9866 165.43 16.168C166.942 18.0826 166.942 18.0826 169.031 19.4375C173.965 23.3533 176.299 31.1222 178 37C178.495 36.01 178.495 36.01 179 35C179.66 35 180.32 35 181 35C181.111 34.2975 181.222 33.5949 181.336 32.8711C183.142 25.0627 186.983 18.0314 193.418 13.2227C195.213 11.941 195.213 11.941 196.937 9.5C199.759 6.08043 203.045 3.05497 207 0.999999C208.937 0.960937 208.937 0.960937 211 2C215.411 6.37674 217.351 10.716 219.25 16.5625C219.505 17.3044 219.76 18.0462 220.023 18.8105C225.547 35.1327 225.834 57.0445 219 73C219.554 72.7113 220.109 72.4225 220.68 72.125C221.404 71.7537 222.129 71.3825 222.875 71C223.594 70.6287 224.314 70.2575 225.055 69.875C227 69 227 69 229 69C229 68.34 229 67.68 229 67C239.448 62.9082 248.743 60.5689 260 61C260.726 80.2612 258.015 98.3671 250 116C249.34 116 248.68 116 248 116C247.727 116.722 247.453 117.444 247.172 118.188C244.095 125.573 240.323 131.157 234 136C233.196 136.969 232.391 137.939 231.562 138.938C229.108 141.871 226.608 144.153 223.668 146.566C221.821 148.085 221.821 148.085 219.812 150.5C215.147 154.647 208.381 159 202 159C202 159.66 202 160.32 202 161C191.591 165.314 183.346 167.307 172 167C171.025 148.44 178.534 137.138 188.812 122.562C189.877 121.043 190.94 119.522 192 118C192.401 117.435 192.802 116.871 193.215 116.289C200.101 105.635 200.423 90.7245 198.5 78.5625C194.668 64.2419 185.641 50.9917 174 42C173.01 41.505 173.01 41.505 172 41C172 40.34 172 39.68 172 39C171.237 38.7731 170.474 38.5463 169.687 38.3125C166.571 37.2031 163.68 35.9581 160.687 34.5625C149.431 29.3777 139.388 27.8431 127.08 27.4824C125.782 27.4312 125.782 27.4312 124.457 27.3789C123.281 27.3413 123.281 27.3413 122.081 27.303C120 27 120 27 117 25C115.867 22.793 115.867 22.793 114.875 20.1875C114.542 19.3354 114.21 18.4834 113.867 17.6055C111.896 11.6836 111.892 6.19121 112 -6.25849e-07Z" fill="#03A400"/>
<path d="M172 39C172 39.66 172 40.32 172 41C172.58 41.2655 173.16 41.5311 173.758 41.8047C186.821 48.7685 194.221 63.5071 198.457 77.0625C198.636 77.7019 198.815 78.3413 199 79C199.275 79.903 199.275 79.903 199.555 80.8242C202.136 93.4387 199.572 107.779 192.812 118.625C191.564 120.432 190.292 122.223 189 124C187.453 126.184 185.91 128.37 184.375 130.562C183.991 131.109 183.607 131.656 183.212 132.219C177.149 140.977 172.982 149.643 172.375 160.375C172.3 161.62 172.225 162.865 172.148 164.148C172.075 165.56 172.075 165.56 172 167C173.32 167.33 174.64 167.66 176 168C173.688 168.312 173.688 168.312 171 168C169.312 165.562 169.312 165.562 168 163C167.34 162.67 166.68 162.34 166 162C165.07 160.306 164.141 158.612 163.219 156.914C161.919 154.873 160.494 153.358 158.75 151.688C157.389 150.357 157.389 150.357 156 149C156 148.34 156 147.68 156 147C155.423 146.959 154.845 146.918 154.25 146.875C151.489 145.801 150.694 144.338 149.195 141.859C147.797 139.685 146.201 137.75 144.562 135.75C137.832 127.063 135.134 118.447 132.895 107.855C132.14 104.158 132.14 104.158 130.961 101.402C129.77 98.4242 129.335 95.539 128.812 92.375C124.382 68.5841 112.343 49.62 95 33C113.027 14.9725 153.667 29.4809 172 39ZM128 39C127.34 40.32 126.68 41.64 126 43C128.515 45.5151 130.243 45.2472 133.652 45.5938C138.016 46.3489 141.961 48.2379 146 50C146.665 50.272 147.33 50.544 148.016 50.8242C150.74 51.9435 153.237 53.1453 155.75 54.6875C157.998 56.2519 157.998 56.2519 161 56C161.249 56.5878 161.498 57.1756 161.754 57.7812C163.174 60.3099 164.701 61.6677 166.938 63.5C169.732 65.7986 171.922 68.0299 174 71C176.032 70.3602 176.032 70.3602 178 69C178.812 66.4448 178.812 66.4448 179 64C178.34 64 177.68 64 177 64C176.732 63.2781 176.464 62.5562 176.188 61.8125C173.132 54.5763 168.885 50.7215 162 47C161.34 47 160.68 47 160 47C160 46.34 160 45.68 160 45C157.94 44.1824 155.877 43.3712 153.812 42.5625C152.09 41.8838 152.09 41.8838 150.332 41.1914C144.943 39.2646 140.413 38.884 134.688 38.9375C133.433 38.9465 132.179 38.9555 130.887 38.9648C129.934 38.9764 128.981 38.988 128 39ZM160.062 87.9375C158.171 93.3884 158.178 98.5688 160.375 103.938C161.812 107.008 161.812 107.008 164 109C166.414 109.584 166.414 109.584 169 109C171.576 107.311 171.576 107.311 173 104C173.808 97.5013 173.845 92.4782 170 87C168.834 85.6258 168.834 85.6258 165.625 85.625C161.975 85.6175 161.975 85.6175 160.062 87.9375Z" fill="#047AD3"/>
<path d="M244 149C241.546 156.976 239.107 163.199 233 169C232.048 170.745 231.097 172.49 230.16 174.242C228.432 176.861 226.159 178.585 223.727 180.531C221.146 182.726 219.159 185.398 217 188C215.02 189.691 213.021 191.358 211 193C210.278 193.784 209.556 194.567 208.812 195.375C205.299 198.654 201.434 200.973 197.328 203.449C194.898 204.79 194.898 204.79 194 207C192.405 207.946 192.405 207.946 190.359 208.91C189.618 209.26 188.877 209.61 188.113 209.971C186.943 210.511 186.943 210.511 185.75 211.062C184.986 211.427 184.221 211.791 183.434 212.166C179.649 213.934 176.186 215.456 172 216C172 216.66 172 217.32 172 218C140.786 226.303 113.065 227.026 82 218C82 217.34 82 216.68 82 216C81.4173 215.853 80.8347 215.706 80.2344 215.555C71.2435 213.095 62.5533 209.783 56 203C54.7152 202.144 53.4023 201.329 52.0625 200.562C48.5046 198.402 45.8883 196.026 43 193C39.6937 189.97 36.3481 186.984 33 184C33.33 183.34 33.66 182.68 34 182C36.31 184.31 38.62 186.62 41 189C40.0306 187.907 39.0612 186.814 38.0625 185.688C35.981 183.34 35.0108 182.033 34 179C36.1278 176.659 38.1156 175.293 41 174C41.66 174.99 42.32 175.98 43 177C43 176.34 43 175.68 43 175C46 174 46 174 49 174C49.66 174.33 50.32 174.66 51 175C50.67 175.66 50.34 176.32 50 177C50.6187 176.67 51.2375 176.34 51.875 176C54 175 54 175 56 175C57.392 170.824 55.8232 168.865 54 165C54.66 165 55.32 165 56 165C57.2162 166.482 58.3726 168.012 59.5 169.562C63.1754 174.326 67.0175 177.445 72.0938 180.625C72.7228 181.079 73.3519 181.532 74 182C74 182.66 74 183.32 74 184C74.8173 184.255 75.6345 184.51 76.4766 184.773C80.5453 186.19 84.4412 187.875 88.375 189.625C89.1111 189.95 89.8471 190.275 90.6055 190.609C92.4047 191.404 94.2025 192.202 96 193C96 193.66 96 194.32 96 195C96.5595 195.11 97.1189 195.219 97.6953 195.332C98.4971 195.491 99.2989 195.649 100.125 195.812C101.014 195.986 101.902 196.16 102.818 196.339C104.907 196.773 106.988 197.245 109.058 197.759C117.545 199.807 125.652 200.47 134.331 200.391C136.433 200.375 138.533 200.391 140.635 200.41C157.633 200.435 172.698 196.297 188 189C188.949 188.558 189.897 188.116 190.875 187.66C197.946 184.266 204.443 180.275 210.969 175.953C214 174 214 174 216.352 172.852C218.176 172.122 218.176 172.122 218.875 170.125C220.515 167.027 223.084 165.887 226 164C227.683 162.35 229.348 160.681 231 159C232.883 157.216 234.779 155.445 236.688 153.688C237.64 152.804 238.593 151.921 239.574 151.012C242 149 242 149 244 149Z" fill="#0E88D5"/>
<path d="M50 73C50.33 73 50.66 73 51 73C51.33 82.9 51.66 92.8 52 103C52.99 103 53.98 103 55 103C55.66 101.68 56.32 100.36 57 99C58.32 99.33 59.64 99.66 61 100C61.33 99.34 61.66 98.68 62 98C62.66 98 63.32 98 64 98C64.66 97.34 65.32 96.68 66 96C66.66 96 67.32 96 68 96C68.66 99.3 69.32 102.6 70 106C70.66 106 71.32 106 72 106C72.6706 107.79 73.3364 109.582 74 111.375C74.5569 112.872 74.5569 112.872 75.125 114.398C76 117 76 117 76 119C76.66 119.33 77.32 119.66 78 120C78.896 121.454 79.7421 122.939 80.5625 124.438C84.0227 130.333 88.2769 135.089 93 140C94.1196 141.197 94.1196 141.197 95.2617 142.418C102.295 149.746 109.856 154.678 119 159C119 159.66 119 160.32 119 161C119.822 161.238 119.822 161.238 120.66 161.48C127.363 163.453 133.972 165.654 140.582 167.914C143.397 168.808 146.095 169.502 149 170C149 170.66 149 171.32 149 172C163.52 172 178.04 172 193 172C193 171.34 193 170.68 193 170C196.877 168.807 199.916 168 204 168C204 168.66 204 169.32 204 170C203.34 170 202.68 170 202 170C201.794 170.577 201.588 171.155 201.375 171.75C195.913 180.688 180.526 184.369 171.168 187.238C164.73 188.786 158.316 189.17 151.723 189.238C150.568 189.25 150.568 189.25 149.39 189.263C147.768 189.276 146.145 189.287 144.522 189.295C142.898 189.307 141.275 189.327 139.651 189.357C126.803 189.591 115.231 188.077 103 184C103 183.34 103 182.68 103 182C102.166 181.912 101.332 181.825 100.473 181.734C96.3283 180.858 93.1305 179.265 89.4375 177.25C88.791 176.915 88.1446 176.58 87.4785 176.234C81.5291 173.039 77.1282 169.092 74 163C74 162.34 74 161.68 74 161C73.1125 160.867 73.1125 160.867 72.207 160.73C65.7754 158.602 62.1208 149.731 59.25 144.062C56.8057 139.11 54.8874 134.145 53.5078 128.793C53.1554 126.993 53.1554 126.993 52 126C49.5298 114.626 49.7623 103.19 49.875 91.625C49.8851 89.8099 49.8942 87.9948 49.9023 86.1797C49.9241 81.7863 49.9585 77.3932 50 73Z" fill="#0A8B0B"/>
<path d="M96 33C109.523 37.6941 119.187 50.7914 125.375 63.125C128.029 68.6172 130.478 74.0768 132 80C132.253 80.9694 132.505 81.9388 132.766 82.9375C134.487 89.9568 135.6 96.9168 136.375 104.102C137.032 107.151 137.494 108.214 140 110C142.606 110.722 142.606 110.722 145 111C145.495 109.515 145.495 109.515 146 108C146.33 108.99 146.66 109.98 147 111C147.99 110.34 148.98 109.68 150 109C150.99 110.485 150.99 110.485 152 112C154.628 112 157.082 111.802 159.688 111.5C160.496 111.407 161.304 111.314 162.137 111.219C163.059 111.11 163.059 111.11 164 111C164 110.67 164 110.34 164 110C165.65 110 167.3 110 169 110C169.309 109.381 169.619 108.762 169.938 108.125C170.625 106.75 171.312 105.375 172 104C172.66 104 173.32 104 174 104C174.056 103.039 174.056 103.039 174.113 102.059C174.541 96.4335 175.254 91.9645 178 87C178.99 86.67 179.98 86.34 181 86C181.33 85.01 181.66 84.02 182 83C183.65 83.33 185.3 83.66 187 84C187.33 83.01 187.66 82.02 188 81C190 82 192 83 194 84C194.495 83.01 194.495 83.01 195 82C196.309 80.9685 197.641 79.9646 199 79C202.562 90.6719 199.938 105.349 194.492 115.93C192.762 118.707 190.924 121.353 189 124C187.453 126.184 185.91 128.37 184.375 130.562C183.991 131.109 183.607 131.656 183.212 132.219C177.149 140.977 172.982 149.643 172.375 160.375C172.3 161.62 172.225 162.865 172.148 164.148C172.075 165.56 172.075 165.56 172 167C173.32 167.33 174.64 167.66 176 168C173.688 168.312 173.688 168.312 171 168C169.312 165.562 169.312 165.562 168 163C167.34 162.67 166.68 162.34 166 162C165.07 160.306 164.141 158.612 163.219 156.914C161.919 154.873 160.494 153.358 158.75 151.688C157.389 150.357 157.389 150.357 156 149C156 148.34 156 147.68 156 147C155.423 146.959 154.845 146.918 154.25 146.875C151.489 145.801 150.694 144.338 149.195 141.859C147.797 139.685 146.201 137.75 144.562 135.75C137.832 127.063 135.134 118.447 132.895 107.855C132.14 104.158 132.14 104.158 130.961 101.402C129.77 98.4242 129.335 95.539 128.812 92.375C124.66 70.0791 113.838 51.1409 97.4688 35.4961C96 34 96 34 96 33Z" fill="#0067C0"/>
<path d="M112 -6.25849e-07C145.735 -1.02526 145.735 -1.02526 160 10C161.948 11.9747 163.717 13.9866 165.43 16.168C166.942 18.0826 166.942 18.0826 169.031 19.4375C173.965 23.3533 176.299 31.1222 178 37C178.495 36.01 178.495 36.01 179 35C179.66 35 180.32 35 181 35C181.111 34.2975 181.222 33.5949 181.336 32.8711C183.142 25.0627 186.983 18.0314 193.418 13.2227C195.213 11.941 195.213 11.941 196.937 9.5C199.759 6.08043 203.045 3.05497 207 0.999999C208.937 0.960937 208.937 0.960937 211 2C215.319 6.31255 217.349 10.573 219.25 16.3125C219.635 17.4348 219.635 17.4348 220.028 18.5798C221.737 23.7337 222.802 28.5499 223 34C221 31 221 31 221 28C220.34 28 219.68 28 219 28C218.505 24.535 218.505 24.535 218 21C217.34 21 216.68 21 216 21C216 20.34 216 19.68 216 19C214.515 19.495 214.515 19.495 213 20C212.34 19.67 211.68 19.34 211 19C210.505 21.475 210.505 21.475 210 24C209.67 24 209.34 24 209 24C208.505 21.03 208.505 21.03 208 18C207.746 19.039 207.492 20.078 207.23 21.1484C205.34 28.8277 203.393 36.4582 201 44C200.01 44 199.02 44 198 44C197.34 43.34 196.68 42.68 196 42C194.02 43.65 192.04 45.3 190 47C190 46.34 190 45.68 190 45C187.03 44.67 184.06 44.34 181 44C182.32 45.65 183.64 47.3 185 49C184.505 49.99 184.505 49.99 184 51C183.301 50.3619 182.603 49.7238 181.883 49.0664C180.973 48.2401 180.063 47.4138 179.125 46.5625C178.22 45.7388 177.315 44.9151 176.383 44.0664C174.189 41.9909 174.189 41.9909 172 41C172 40.34 172 39.68 172 39C171.237 38.7731 170.474 38.5463 169.687 38.3125C166.571 37.2031 163.68 35.9581 160.687 34.5625C149.431 29.3777 139.388 27.8431 127.08 27.4824C125.782 27.4312 125.782 27.4312 124.457 27.3789C123.281 27.3413 123.281 27.3413 122.081 27.303C120 27 120 27 117 25C115.867 22.793 115.867 22.793 114.875 20.1875C114.542 19.3354 114.21 18.4834 113.867 17.6055C111.896 11.6836 111.892 6.19121 112 -6.25849e-07Z" fill="#0CB707"/>
<path d="M241 97C241.99 97.495 241.99 97.495 243 98C242.67 99.65 242.34 101.3 242 103C243.288 103.53 244.58 104.049 245.875 104.562C246.954 104.998 246.954 104.998 248.055 105.441C250.057 106.254 250.057 106.254 252 105C252 105.99 252 106.98 252 108C251.34 108 250.68 108 250 108C250 110.64 250 113.28 250 116C249.34 116 248.68 116 248 116C247.727 116.722 247.453 117.444 247.172 118.188C244.095 125.573 240.323 131.157 234 136C232.793 137.454 232.793 137.454 231.563 138.938C229.108 141.871 226.608 144.153 223.668 146.566C221.822 148.085 221.822 148.085 219.813 150.5C215.147 154.647 208.381 159 202 159C202 159.66 202 160.32 202 161C191.591 165.314 183.346 167.307 172 167C171.025 148.44 178.534 137.138 188.813 122.562C193.521 115.87 196.596 110.15 198 102C200.154 104.622 201.401 106.644 202 110C203.892 110.681 203.892 110.681 206 111C206.66 110.34 207.32 109.68 208 109C208.99 109.33 209.98 109.66 211 110C210.154 110.69 209.309 111.379 208.438 112.09C198.581 120.215 189.799 128.38 184 140C184 140.66 184 141.32 184 142C185.32 139.69 186.64 137.38 188 135C189.32 135.66 190.64 136.32 192 137C192 137.99 192 138.98 192 140C192.66 139.34 193.32 138.68 194 138C195.485 138.495 195.485 138.495 197 139C196.67 139.66 196.34 140.32 196 141C197.65 141.33 199.3 141.66 201 142C199.02 144.475 199.02 144.475 197 147C216.197 132.831 230.276 118.377 241 97Z" fill="#049605"/>
<path d="M79 80C80.32 80.33 81.64 80.66 83 81C83 81.66 83 82.32 83 83C83.5156 83.0825 84.0312 83.165 84.5625 83.25C87 84 87 84 90.0508 85.7891C94.4065 88.3179 98.9729 90.2133 103.625 92.125C104.458 92.4718 105.29 92.8185 106.148 93.1758C110.087 94.8129 114.034 96.4297 118 98C118.33 95.69 118.66 93.38 119 91C119.99 90.67 120.98 90.34 122 90C122.495 89.175 122.99 88.35 123.5 87.5C125 85 125 85 128 84C128.242 85.137 128.485 86.2739 128.734 87.4453C133.19 108.078 137.8 127.709 152 144C149.054 144 147.125 143.541 144.332 142.688C143.439 142.417 142.547 142.146 141.627 141.867C140.698 141.581 139.769 141.295 138.812 141C137.872 140.714 136.932 140.428 135.963 140.133C133.641 139.426 131.32 138.714 129 138C129 137.34 129 136.68 129 136C128.216 135.773 127.433 135.546 126.625 135.312C118.046 132.206 110.868 127.783 103.75 122.125C102.605 121.245 102.605 121.245 101.438 120.348C97.1906 117.016 93.5559 113.613 90.2002 109.378C89.0277 107.855 89.0277 107.855 87 107C87 106.01 87 105.02 87 104C86.34 104 85.68 104 85 104C80.1452 98.6885 75.9802 93.2625 75.7422 85.8828C76.1005 83.2657 77.0725 81.7733 79 80Z" fill="#019703"/>
<path d="M47 36C46.4265 38.8672 46.1385 39.8615 44 42C43.34 42.33 42.68 42.66 42 43C41.2281 44.7407 41.2281 44.7407 40.625 46.875C39.5022 50.4658 38.2705 53.9817 36.9375 57.5C35.1708 62.2875 34.046 67.0114 33 72C32.67 72.33 32.34 72.66 32 73C31.899 75.6546 31.8603 78.2826 31.8672 80.9375C31.8662 81.7328 31.8653 82.528 31.8643 83.3474C31.8636 85.0321 31.8655 86.7167 31.8696 88.4014C31.875 90.989 31.8697 93.5764 31.8633 96.1641C31.8639 97.7969 31.8652 99.4297 31.8672 101.062C31.8652 101.842 31.8631 102.621 31.861 103.424C31.5416 107.008 31.5416 107.008 33 110C33.0374 109.056 33.0748 108.113 33.1133 107.141C34.2063 85.7937 34.2063 85.7937 39 81C38.4787 84.3883 37.8288 87.6898 36.9961 91.0117C35.7769 96.45 35.5904 101.819 35.4375 107.375C35.3776 109.32 35.3139 111.266 35.2461 113.211C35.2222 114.06 35.1982 114.908 35.1736 115.783C35 118 35 118 34 121C34.66 121.33 35.32 121.66 36 122C35.67 124.97 35.34 127.94 35 131C33 128 33 128 32 125C31.01 125 30.02 125 29 125C29 124.34 29 123.68 29 123C28.0719 123.804 27.1437 124.609 26.1875 125.438C24.0072 127.327 22.8266 128.058 20 129C20 128.01 20 127.02 20 126C19.2987 126.495 18.5975 126.99 17.875 127.5C14.6288 129.194 12.6066 129.252 8.99999 129C3.16676 117.334 7.95047 90.4448 11.6987 78.8359C16.6371 64.1815 16.6371 64.1815 21 62C21.2681 61.1131 21.5362 60.2262 21.8125 59.3125C23.9443 53.3659 28.5528 49.3388 33 45C33.4744 44.4921 33.9487 43.9842 34.4375 43.4609C37.8689 39.8329 41.6788 36 47 36Z" fill="#0969BD"/>
<path d="M79.375 20.6875C83.1711 22.062 84.3027 23.1393 87 26C88.2572 26.7726 89.5299 27.5203 90.8125 28.25C95.4983 31.0685 98.5558 34.8234 102 39C103.316 40.3501 104.64 41.6941 106 43C105.67 43.66 105.34 44.32 105 45C103.35 43.35 101.7 41.7 100 40C99.67 42.31 99.34 44.62 99 47C98.1956 47.2681 97.3913 47.5362 96.5625 47.8125C95.7169 48.2044 94.8712 48.5962 94 49C93.505 50.485 93.505 50.485 93 52C92.34 51.01 91.68 50.02 91 49C90.67 49.66 90.34 50.32 90 51C90.66 51 91.32 51 92 51C92.7928 52.4161 93.5842 53.8329 94.375 55.25C94.8159 56.0389 95.2567 56.8278 95.7109 57.6406C96.8575 59.7391 97.9465 61.8536 99 64C98.34 64 97.68 64 97 64C96.505 64.99 96.505 64.99 96 66C95.4431 65.7525 94.8863 65.505 94.3125 65.25C91.767 64.7033 91.767 64.7033 89.4375 67C88.6331 67.66 87.8288 68.32 87 69C86.01 68.67 85.02 68.34 84 68C83.3813 68.7734 83.3813 68.7734 82.75 69.5625C82.1725 70.0369 81.595 70.5112 81 71C78.875 70.625 78.875 70.625 77 70C75.8419 71.0527 75.8419 71.0527 75 73C76.485 73.495 76.485 73.495 78 74C78.6875 76.0625 78.6875 76.0625 79 78C73.528 73.9421 70.6992 70.2622 68 64C67.34 65.98 66.68 67.96 66 70C61.7061 70 58.9545 69.7101 55 68C55 67.34 55 66.68 55 66C54.34 66 53.68 66 53 66C52.67 76.89 52.34 87.78 52 99C51.67 99 51.34 99 51 99C50.925 94.7683 50.871 90.5369 50.8352 86.3047C50.8203 84.8694 50.7999 83.4342 50.7737 81.999C50.624 73.581 50.8137 65.9484 54 58C53.34 57.67 52.68 57.34 52 57C52.66 56.34 53.32 55.68 54 55C54.6576 53.1851 55.253 51.3475 55.8125 49.5C58.5234 41.1365 61.3747 33.9789 68 28C69.5861 26.1745 71.1303 24.3195 72.668 22.4531C75.0749 19.8274 75.7723 19.9536 79.375 20.6875Z" fill="#4ECD07"/>
<path d="M172 39C172 39.66 172 40.32 172 41C172.576 41.2604 173.152 41.5208 173.746 41.7891C176.162 43.0872 178.008 44.5619 180.062 46.375C180.734 46.9602 181.406 47.5455 182.098 48.1484C184.015 50.0143 185.59 51.7242 187 54C187 55.32 187 56.64 187 58C185.515 58.495 185.515 58.495 184 59C184 58.34 184 57.68 184 57C182.68 56.67 181.36 56.34 180 56C179.002 58.6951 178.886 59.7217 180 62.4375C181.171 65.4374 180.87 66.9545 180 70C179.34 70 178.68 70 178 70C178.055 69.2794 178.111 68.5588 178.168 67.8164C177.817 61.939 173.675 56.6323 169.562 52.625C166.427 50.6368 163.255 48.7869 160 47C160 46.34 160 45.68 160 45C157.571 44.2535 155.14 43.519 152.703 42.8008C150.545 42.1615 148.396 41.492 146.25 40.8125C140.32 39.3299 134.063 39.8467 128 40C128 41.32 128 42.64 128 44C129.671 44.1237 129.671 44.1237 131.375 44.25C136.635 44.9016 141.176 46.8928 146 49C147.196 49.495 148.393 49.99 149.625 50.5C155.025 52.9 155.025 52.9 157.375 54C158.043 54.3094 158.71 54.6187 159.398 54.9375C161 56 161 56 162 59C161.313 58.8814 160.626 58.7628 159.918 58.6406C159.017 58.5117 158.116 58.3828 157.188 58.25C156.294 58.1108 155.401 57.9716 154.48 57.8281C151.832 57.726 151.832 57.726 150.176 59.9844C149.788 60.6495 149.4 61.3147 149 62C148.34 61.34 147.68 60.68 147 60C139.867 60.3965 139.867 60.3965 134 64C133.01 64 132.02 64 131 64C130.01 64.495 130.01 64.495 129 65C128.34 63.68 127.68 62.36 127 61C125.515 61.495 125.515 61.495 124 62C123.588 61.3104 123.175 60.6207 122.75 59.9102C115.252 47.7094 106.866 39.9109 95 32C121.28 21.1511 147.48 26.2683 172 39Z" fill="#098CDB"/>
<path d="M208 16C211 16 211 16 212.562 17.5C213.037 17.995 213.511 18.49 214 19C214.66 19 215.32 19 216 19C216 19.66 216 20.32 216 21C216.66 21 217.32 21 218 21C218.495 24.465 218.495 24.465 219 28C219.66 28 220.32 28 221 28C223.655 33.9953 223.295 40.0133 223.25 46.4375C223.262 48.0975 223.262 48.0975 223.273 49.791C223.26 55.58 222.979 60.5426 221 66C220.34 66 219.68 66 219 66C218.818 67.0905 218.818 67.0905 218.633 68.2031C216.795 76.3274 211.719 84.0363 206 90C205.34 90 204.68 90 204 90C203.67 90.99 203.34 91.98 203 93C201.515 93.495 201.515 93.495 200 94C199.836 92.5324 199.836 92.5324 199.668 91.0352C198 76.8907 194.03 63.3768 185 52C183.29 49.3031 182.013 47.0376 181 44C181.652 44.1186 182.305 44.2372 182.977 44.3594C189.096 45.3546 189.096 45.3546 194.625 43.0625C195.801 42.0416 195.801 42.0416 197 41C197 41.66 197 42.32 197 43C197.99 43.33 198.98 43.66 200 44C202.976 34.7307 205.79 25.4888 208 16Z" fill="#008800"/>
<path d="M80 150C83.7872 151.648 86.8037 154.128 90 156.688C114.269 175.595 144.502 183.467 175 180C174.164 182.449 174.164 182.449 173 185C170.375 185.812 170.375 185.812 168 186C168 186.66 168 187.32 168 188C162.545 188.76 157.228 189.181 151.723 189.238C150.568 189.25 150.568 189.25 149.39 189.263C147.768 189.276 146.145 189.287 144.522 189.295C142.898 189.307 141.275 189.327 139.651 189.357C126.803 189.591 115.231 188.077 103 184C103 183.34 103 182.68 103 182C102.166 181.912 101.332 181.825 100.473 181.734C96.3283 180.858 93.1305 179.265 89.4375 177.25C88.4678 176.747 88.4678 176.747 87.4785 176.234C80.7855 172.639 76.1961 168.02 73.125 161C72.9338 157.941 74.231 156.44 76 154C77.2958 152.63 78.6199 151.285 80 150Z" fill="#036E04"/>
<path d="M51 58C51.99 58 52.98 58 54 58C53.6806 59.2838 53.6806 59.2838 53.3547 60.5935C51.1114 70.4883 50.563 79.8969 50.6638 90.0251C50.6875 92.5633 50.6843 95.1004 50.6777 97.6387C50.699 109.945 50.7935 122.618 56 134C56.3493 134.826 56.6987 135.653 57.0586 136.504C62.2845 149.495 62.2845 149.495 71 160C72.32 160 73.64 160 75 160C75.33 161.98 75.66 163.96 76 166C75.4148 165.704 74.8295 165.407 74.2266 165.102C72.2978 164.147 70.3386 163.255 68.375 162.375C57.7176 157.056 45.3022 146.439 40.875 135.125C40.5863 134.094 40.2975 133.062 40 132C39.1618 130.36 38.3202 128.723 37.4766 127.086C34.5897 120.786 34.3152 115.348 34.5 108.5C34.4974 107.449 34.4948 106.399 34.4922 105.316C34.5698 99.0383 35.4005 93.4968 37.2576 87.4978C38.266 84.1049 38.87 80.6752 39.4727 77.1914C40.0312 74.8702 40.7725 73.0459 42 71C42.66 70.67 43.32 70.34 44 70C45.018 68.2531 45.018 68.2531 45.9375 66.1875C48.7869 60.3094 48.7869 60.3094 51 58Z" fill="#0A477D"/>
<path d="M245 86C239.28 110.785 220.968 132.332 200 146C198.355 146.719 196.694 147.406 195 148C196.65 146.02 198.3 144.04 200 142C198.68 141.67 197.36 141.34 196 141C196 140.34 196 139.68 196 139C195.34 139 194.68 139 194 139C193.34 139.66 192.68 140.32 192 141C191.34 140.01 190.68 139.02 190 138C189.34 137.34 188.68 136.68 188 136C186.68 138.31 185.36 140.62 184 143C183 140 183 140 184.117 137.652C193.887 122.564 206.259 112.302 221.133 102.559C225.04 99.9911 228.876 97.332 232.687 94.625C233.263 94.2203 233.839 93.8156 234.433 93.3987C236.902 91.6353 239.13 89.8686 241.27 87.7109C243 86 243 86 245 86Z" fill="#29B600"/>
<path d="M50 73C50.33 73 50.66 73 51 73C51.33 82.9 51.66 92.8 52 103C52.99 103 53.98 103 55 103C55.66 101.68 56.32 100.36 57 99C58.32 99.33 59.64 99.66 61 100C61.33 99.34 61.66 98.68 62 98C62.66 98 63.32 98 64 98C64.66 97.34 65.32 96.68 66 96C66.66 96 67.32 96 68 96C68.66 99.3 69.32 102.6 70 106C70.66 106 71.32 106 72 106C72.6706 107.79 73.3364 109.582 74 111.375C74.5569 112.872 74.5569 112.872 75.125 114.398C76 117 76 117 76 119C76.66 119.33 77.32 119.66 78 120C77.67 121.65 77.34 123.3 77 125C73.7 125.99 70.4 126.98 67 128C67 134.27 70.4445 138.053 74.5625 142.25C79.9118 147.824 79.9118 147.824 81 150C79.6667 151.333 78.3333 152.667 77 154C76.262 155.19 75.5552 156.401 74.875 157.625C74.2563 158.739 73.6375 159.852 73 161C64.2407 157.443 59.5202 145.164 56 137C55.0821 134.303 54.2678 131.617 53.543 128.863C53.1628 127.002 53.1628 127.002 52 126C49.5298 114.626 49.7623 103.19 49.875 91.625C49.8851 89.8099 49.8942 87.9948 49.9023 86.1797C49.9241 81.7863 49.9585 77.3932 50 73Z" fill="#007901"/>
<path d="M260 61C260.343 70.1009 259.968 78.8022 258.625 87.8125C258.499 88.6778 258.373 89.5431 258.243 90.4346C257.62 94.3516 257.247 96.6288 255 100C255.617 94.3264 256.279 88.6614 257 83C256.381 82.7319 255.762 82.4637 255.125 82.1875C253 81 253 81 251 78C246.802 78 245.793 79.8079 242.812 82.6875C238.482 86.7686 234.281 90.2156 229 93C227 92 227 92 226 90C225.34 90.33 224.68 90.66 224 91C223.629 90.2575 223.257 89.515 222.875 88.75C220.676 85.5254 218.32 83.9922 215 82C213.824 83.2066 213.824 83.2066 212.625 84.4375C210 87 210 87 208 88C209.493 84.8894 211.197 81.9241 212.922 78.9375C214.405 76.272 215.742 73.542 217.07 70.7969C218 69 218 69 220 66C219.67 68.31 219.34 70.62 219 73C219.554 72.7112 220.109 72.4225 220.68 72.125C221.766 71.5681 221.766 71.5681 222.875 71C223.594 70.6287 224.314 70.2575 225.055 69.875C227 69 227 69 229 69C229 68.34 229 67.68 229 67C239.448 62.9082 248.743 60.5689 260 61Z" fill="#42C511"/>
<path d="M108 110C110.651 110 112.473 110.368 115 111C115.99 111 116.98 111 118 111C118.66 111.66 119.32 112.32 120 113C123.185 113.277 123.185 113.277 126 111C126 111.99 126 112.98 126 114C127.892 114.681 127.892 114.681 130 115C130.66 114.34 131.32 113.68 132 113C132.66 113.99 133.32 114.98 134 116C134.33 115.01 134.66 114.02 135 113C135.371 114.237 135.743 115.475 136.125 116.75C139.639 127.16 144.795 135.734 152 144C149.054 144 147.125 143.541 144.332 142.688C143.439 142.417 142.547 142.146 141.627 141.867C140.698 141.581 139.769 141.295 138.812 141C137.872 140.714 136.932 140.428 135.963 140.133C133.641 139.426 131.32 138.714 129 138C129 137.34 129 136.68 129 136C128.216 135.773 127.433 135.546 126.625 135.312C116.524 131.655 104.903 126.106 100 116C100.33 115.34 100.66 114.68 101 114C100.01 113.67 99.02 113.34 98 113C98.33 112.34 98.66 111.68 99 111C103 111 103 111 106 112C106.66 111.34 107.32 110.68 108 110Z" fill="#058A07"/>
<path d="M198 102C200.154 104.622 201.401 106.644 202 110C203.892 110.681 203.892 110.681 206 111C206.66 110.34 207.32 109.68 208 109C208.99 109.33 209.98 109.66 211 110C210.154 110.69 209.309 111.379 208.438 112.09C198.581 120.215 189.799 128.38 184 140C184 140.66 184 141.32 184 142C185.32 139.69 186.64 137.38 188 135C189.32 135.66 190.64 136.32 192 137C192 137.99 192 138.98 192 140C192.66 139.34 193.32 138.68 194 138C195.485 138.495 195.485 138.495 197 139C196.67 139.66 196.34 140.32 196 141C197.65 141.33 199.3 141.66 201 142C199.02 144.475 199.02 144.475 197 147C206.638 139.887 215.87 132.849 224 124C224 128.187 221.792 130.142 219 133C216.81 134.945 214.521 136.731 212.188 138.5C211.568 138.976 210.949 139.453 210.31 139.943C209.09 140.88 207.867 141.815 206.642 142.746C205.268 143.795 203.909 144.864 202.555 145.938C199.591 148.262 197.142 149.942 193.625 151.375C189.225 153.347 185.996 156.061 182.332 159.16C180 161 180 161 177.824 162.059C175.656 162.991 175.656 162.991 174 166C173.34 166 172.68 166 172 166C170.971 148.024 178.874 136.656 188.812 122.562C193.521 115.87 196.596 110.15 198 102ZM234 110C234.66 110 235.32 110 236 110C233.94 115.545 231.508 120.074 227 124C226.34 124 225.68 124 225 124C226.545 120.693 228.428 117.753 230.5 114.75C231.108 113.858 231.717 112.966 232.344 112.047C232.89 111.371 233.437 110.696 234 110Z" fill="#02A200"/>
<path d="M198 79C201.743 84.8811 200.641 94.095 199.547 100.762C199.103 102.527 198.565 104.269 198 106C197.34 105.67 196.68 105.34 196 105C196 104.34 196 103.68 196 103C195.34 103 194.68 103 194 103C193.897 103.784 193.794 104.567 193.688 105.375C193 108 193 108 190 110C189.34 109.34 188.68 108.68 188 108C185.776 109.925 185.776 109.925 185 113C183 113 181 113 179 113C178.154 113.186 177.309 113.371 176.438 113.562C174 114 174 114 172 113C171.667 111.667 171.333 110.333 171 109C170.34 108.67 169.68 108.34 169 108C170.375 106 170.375 106 172 104C172.66 104 173.32 104 174 104C174.037 103.359 174.075 102.719 174.113 102.059C174.541 96.4335 175.254 91.9645 178 87C178.99 86.67 179.98 86.34 181 86C181.33 85.01 181.66 84.02 182 83C183.65 83.33 185.3 83.66 187 84C187.33 83.01 187.66 82.02 188 81C190 82 192 83 194 84C194.33 83.34 194.66 82.68 195 82C195.98 80.9806 196.978 79.9775 198 79Z" fill="#006CC9"/>
<path d="M112 63C112.33 63.66 112.66 64.32 113 65C115.025 65.6521 115.025 65.6521 117 66C117.33 65.34 117.66 64.68 118 64C118 64.99 118 65.98 118 67C118.66 67 119.32 67 120 67C120.33 66.34 120.66 65.68 121 65C122.012 67.7044 123.01 70.4127 124 73.125C124.286 73.8855 124.572 74.6461 124.867 75.4297C126.441 79.7772 127.36 83.3019 127 88C126.34 87.34 125.68 86.68 125 86C124.526 86.8044 124.051 87.6087 123.562 88.4375C122 91 122 91 121 92C121 92.99 121 93.98 121 95C120.34 95 119.68 95 119 95C119.33 96.32 119.66 97.64 120 99C113.747 98.493 108.58 95.6437 103 93C101.273 92.2237 99.5443 91.4523 97.8125 90.6875C97.0764 90.3614 96.3404 90.0352 95.582 89.6992C95.06 89.4685 94.5379 89.2377 94 89C95.4459 85.4865 95.8085 85.0889 99.5 83.375C100.655 82.9212 101.81 82.4675 103 82C103.66 81.34 104.32 80.68 105 80C107.125 79.375 107.125 79.375 109 79C109 76.3358 108.908 74.4774 108 72C107.01 71.67 106.02 71.34 105 71C105.33 69.35 105.66 67.7 106 66C106.619 65.8762 107.238 65.7525 107.875 65.625C110.191 65.128 110.191 65.128 112 63Z" fill="#28B700"/>
<path d="M47 36C46.4265 38.8672 46.1385 39.8615 44 42C43.01 42.495 43.01 42.495 42 43C41.2281 44.7407 41.2281 44.7407 40.625 46.875C39.5022 50.4658 38.2705 53.9817 36.9375 57.5C35.1708 62.2875 34.046 67.0114 33 72C32.67 72.33 32.34 72.66 32 73C31.9114 75.6663 31.8848 78.3065 31.9023 80.9727C31.9045 82.1691 31.9045 82.1691 31.9066 83.3898C31.9122 85.9474 31.9248 88.5049 31.9375 91.0625C31.9425 92.7923 31.9471 94.5221 31.9512 96.252C31.9622 100.501 31.9795 104.751 32 109C31.67 109 31.34 109 31 109C30.0496 97.6457 29.8897 86.3892 30 75C28.35 75 26.7 75 25 75C25 74.34 25 73.68 25 73C21.9255 73.7764 21.9255 73.7764 20 76C20 75.34 20 74.68 20 74C18.0769 74.0396 18.0769 74.0396 16 75C14.2162 77.9835 14.2162 77.9835 13 81C11.6614 76.9843 12.7693 75.3281 14.3125 71.4375C14.7624 70.2812 15.2123 69.1249 15.6758 67.9336C17.0643 64.8575 17.9886 63.5057 21 62C21.2681 61.1131 21.5362 60.2262 21.8125 59.3125C23.9443 53.3659 28.5528 49.3388 33 45C33.4744 44.4921 33.9487 43.9842 34.4375 43.4609C37.8689 39.8329 41.6788 36 47 36Z" fill="#3989D3"/>
<path d="M149 90C149.99 90 150.98 90 152 90C153.021 90.3094 153.021 90.3094 154.063 90.625C154.702 90.7488 155.341 90.8725 156 91C156.66 90.34 157.32 89.68 158 89C158.33 93.95 158.66 98.9 159 104C159.66 104 160.32 104 161 104C161.433 104.639 161.866 105.279 162.313 105.938C164.409 108.499 165.783 108.652 169 109C167.096 110.904 165.666 111.935 162.953 112.199C160.968 112.189 158.983 112.099 157 112C156.67 112.66 156.34 113.32 156 114C154.68 114 153.36 114 152 114C152 113.34 152 112.68 152 112C151.34 111.67 150.68 111.34 150 111C149.67 110.67 149.34 110.34 149 110C148.34 110.66 147.68 111.32 147 112C146.67 111.01 146.34 110.02 146 109C145.01 109.99 144.02 110.98 143 112C137.394 109.806 137.394 109.806 135.625 106.188C134.97 102.847 134.507 100.379 135 97C139.106 91.0686 141.855 88.1679 149 90Z" fill="#046ECA"/>
<path d="M96 33C109.523 37.6941 119.187 50.7914 125.375 63.125C128.029 68.6172 130.478 74.0768 132 80C132.253 80.9694 132.505 81.9388 132.766 82.9375C134.127 88.4893 135.15 93.9479 135.812 99.625C137.732 113.739 142.633 126.859 150 139C147 139 147 139 145.57 137.602C138.659 128.15 135.296 119.209 132.895 107.855C132.14 104.158 132.14 104.158 130.961 101.402C129.77 98.4242 129.335 95.539 128.812 92.375C124.66 70.0791 113.838 51.1409 97.4688 35.4961C96 34 96 34 96 33Z" fill="#005C9F"/>
<path d="M208.926 0.972656C214.266 3.61745 216.621 8.77112 218.523 14.1174C218.763 14.8418 219.003 15.5662 219.25 16.3125C219.635 17.4348 219.635 17.4348 220.028 18.5798C221.737 23.7337 222.802 28.5499 223 34C221 31 221 31 221 28C220.34 28 219.68 28 219 28C218.505 24.535 218.505 24.535 218 21C217.34 21 216.68 21 216 21C216 20.34 216 19.68 216 19C215.01 19.33 214.02 19.66 213 20C212.34 19.67 211.68 19.34 211 19C210.67 20.65 210.34 22.3 210 24C209.67 24 209.34 24 209 24C208.67 22.02 208.34 20.04 208 18C207.34 21.3 206.68 24.6 206 28C200.25 27.25 200.25 27.25 198 25C194.947 24.8419 194.947 24.8419 192 26C192 25.34 192 24.68 192 24C191.01 23.67 190.02 23.34 189 23C188.67 22.67 188.34 22.34 188 22C187.34 22.66 186.68 23.32 186 24C186.478 19.6982 188.967 17.9016 192 15C193.112 13.6937 194.215 12.3808 195.312 11.0625C204.038 1.04206 204.038 1.04206 208.926 0.972656Z" fill="#58CF15"/>
<path d="M65 96C65.99 96 66.98 96 68 96C68.66 99.3 69.32 102.6 70 106C70.66 106 71.32 106 72 106C72.6706 107.79 73.3364 109.582 74 111.375C74.5569 112.872 74.5569 112.872 75.125 114.398C76 117 76 117 76 119C76.66 119.33 77.32 119.66 78 120C77.67 121.65 77.34 123.3 77 125C72.05 126.485 72.05 126.485 67 128C66.8946 130.211 66.8946 130.211 68 133C67.34 133 66.68 133 66 133C63 128.615 63 128.615 63 126C62.34 126 61.68 126 61 126C52.906 110.957 52.906 110.957 53 105C54.0329 102.506 55.1955 101.07 57 99C58.32 99.33 59.64 99.66 61 100C61.33 99.34 61.66 98.68 62 98C62.66 98 63.32 98 64 98C64.33 97.34 64.66 96.68 65 96Z" fill="#06A506"/>
<path d="M189 20C189.33 20.99 189.66 21.98 190 23C192.477 23.9084 194.336 24 197 24C199.336 24.3167 201.669 24.6482 204 25C205.193 29.9378 204.674 33.0895 203.062 37.875C202.682 39.0274 202.302 40.1798 201.91 41.3672C201.61 42.236 201.309 43.1048 201 44C200.01 44 199.02 44 198 44C197.34 43.34 196.68 42.68 196 42C194.02 43.65 192.04 45.3 190 47C190 46.34 190 45.68 190 45C187.03 44.67 184.06 44.34 181 44C182.32 45.65 183.64 47.3 185 49C184.67 49.66 184.34 50.32 184 51C178.998 46.9192 177.921 43.3072 177 37C177.66 37 178.32 37 179 37C179 36.34 179 35.68 179 35C179.66 35 180.32 35 181 35C181.103 34.2987 181.206 33.5975 181.312 32.875C182.094 29.6086 183.421 26.9528 185 24C185.66 24 186.32 24 187 24C187.66 22.68 188.32 21.36 189 20Z" fill="#41C606"/>
<path d="M208 16C211 16 211 16 212.562 17.5C213.037 17.995 213.511 18.49 214 19C214.66 19 215.32 19 216 19C216 19.66 216 20.32 216 21C216.66 21 217.32 21 218 21C218.33 23.31 218.66 25.62 219 28C219.66 28 220.32 28 221 28C223.655 33.9953 223.295 40.0133 223.25 46.4375C223.258 47.5442 223.265 48.6508 223.273 49.791C223.26 55.58 222.979 60.5426 221 66C219.824 62.3259 219.926 58.8307 220 55C220.66 55 221.32 55 222 55C221.054 52.6343 220.383 51.2602 218.25 49.8125C215.468 48.8081 212.95 48.251 210 48C209.01 48.66 208.02 49.32 207 50C206.975 45.4793 206.957 40.9587 206.945 36.438C206.94 34.8996 206.933 33.3612 206.925 31.8228C206.912 29.6136 206.907 27.4045 206.902 25.1953C206.897 24.5057 206.892 23.816 206.887 23.1055C206.886 18.2277 206.886 18.2277 208 16Z" fill="#01AF03"/>
<path d="M243 86C243.66 86 244.32 86 245 86C241.904 99.4152 235.2 111.821 226 122C226 120.333 226 118.667 226 117C225.67 116.67 225.34 116.34 225 116C224.031 116 223.061 116 222.062 116C219 116 219 116 217 115C217 114.01 217 113.02 217 112C215.68 112.33 214.36 112.66 213 113C213 112.34 213 111.68 213 111C210.03 112.98 210.03 112.98 207 115C206.34 114.67 205.68 114.34 205 114C219.238 103.374 219.238 103.374 225.812 99.3125C231.976 95.4925 237.863 91.1367 243 86Z" fill="#39BF00"/>
<path d="M130 8C136.887 8.34436 141.438 12.3312 146.055 17.1406C150.5 21.6675 153.375 23.4911 159.812 23.9375C161.431 23.951 161.431 23.951 163.082 23.9648C165.618 23.9954 167.594 24.2601 170 25C170.495 26.98 170.495 26.98 171 29C171.66 29 172.32 29 173 29C175 32 175 32 175 35C175.66 35 176.32 35 177 35C177.66 38.3 178.32 41.6 179 45C176.69 43.68 174.38 42.36 172 41C172 40.34 172 39.68 172 39C171.237 38.7731 170.474 38.5463 169.688 38.3125C165.572 36.8477 161.689 35.0656 157.742 33.1992C155.391 32.1712 153.22 31.5141 150.75 30.875C145.945 29.1729 144.358 25.0955 141.941 20.8672C139.23 16.8629 135.84 14.3535 131.941 11.5586C130.98 10.7871 130.98 10.7871 130 10C130 9.34 130 8.68 130 8Z" fill="#00A000"/>
<path d="M252 76C252.33 76.66 252.66 77.32 253 78C253.66 77.67 254.32 77.34 255 77C255.33 78.65 255.66 80.3 256 82C256.66 82 257.32 82 258 82C257.607 85.4822 257.181 88.9598 256.75 92.4375C256.64 93.4114 256.531 94.3853 256.418 95.3887C255.595 101.863 254.016 107.207 251 113C250.67 113 250.34 113 250 113C249.957 111.334 249.959 109.666 250 108C250.33 107.67 250.66 107.34 251 107C247.629 105.502 245.796 105 242 105C240.531 99.8574 241.119 96.1867 243 91.25C243.371 90.2652 243.743 89.2803 244.125 88.2656C244.558 87.1441 244.558 87.1441 245 86C243.35 87.32 241.7 88.64 240 90C239.34 89.67 238.68 89.34 238 89C238 86 238 86 240.301 83.5195C241.297 82.6086 242.301 81.7065 243.312 80.8125C243.812 80.3491 244.312 79.8857 244.826 79.4082C248.616 76 248.616 76 252 76Z" fill="#0BB20A"/>
<path d="M53 68C53.33 68.66 53.66 69.32 54 70C54.66 70.33 55.32 70.66 56 71C55.34 71 54.68 71 54 71C54.3445 73.4727 54.3445 73.4727 55 76C57.1179 77.1179 57.1179 77.1179 60 78C60.66 77.34 61.32 76.68 62 76C62.66 76.66 63.32 77.32 64 78C64.66 76.68 65.32 75.36 66 74C66.33 79.94 66.66 85.88 67 92C67.66 92 68.32 92 69 92C69.365 93.5809 69.7166 95.1648 70.0625 96.75C70.2597 97.6317 70.457 98.5134 70.6602 99.4219C71 102 71 102 70 106C68.515 101.545 68.515 101.545 67 97C66.34 97.33 65.68 97.66 65 98C64.3423 101.029 64.3423 101.029 64 104C63.67 104 63.34 104 63 104C62.67 102.35 62.34 100.7 62 99C60.02 99.99 60.02 99.99 58 101C57.67 100.67 57.34 100.34 57 100C56.67 101.65 56.34 103.3 56 105C54.68 104.67 53.36 104.34 52 104C51.1292 100.311 50.9291 97.0362 51.0859 93.2539C51.1298 92.1692 51.1736 91.0844 51.2188 89.9668C51.2703 88.8434 51.3219 87.72 51.375 86.5625C51.4188 85.4429 51.4627 84.3234 51.5078 83.1699C51.7278 78.0227 52.0782 73.0765 53 68Z" fill="#22B800"/>
<path d="M198 102C200.154 104.622 201.401 106.644 202 110C203.892 110.681 203.892 110.681 206 111C206.66 110.34 207.32 109.68 208 109C208.99 109.33 209.98 109.66 211 110C210.154 110.69 209.309 111.379 208.437 112.09C198.062 120.643 187.393 129.82 183 143C182.34 143 181.68 143 181 143C180.896 143.665 180.791 144.33 180.684 145.016C179.83 148.743 178.484 152.212 177.062 155.75C176.665 156.777 176.665 156.777 176.26 157.824C174.243 162.878 174.243 162.878 172 164C170.827 147.159 179.557 135.688 188.812 122.562C193.521 115.87 196.596 110.15 198 102Z" fill="#019405"/>
<path d="M219 66C219.931 68.6058 220.149 69.642 219.062 72.25C218.712 72.8275 218.361 73.405 218 74C218.928 73.8144 219.856 73.6287 220.812 73.4375C224 73 224 73 227 74C227.33 74.66 227.66 75.32 228 76C229.65 76 231.3 76 233 76C233 76.99 233 77.98 233 79C233.99 78.67 234.98 78.34 236 78C236 78.66 236 79.32 236 80C237.32 80.66 238.64 81.32 240 82C239.683 85.0508 239.111 85.9067 236.715 87.9219C235.798 88.5252 234.882 89.1284 233.938 89.75C232.559 90.6704 232.559 90.6704 231.152 91.6094C230.442 92.0683 229.732 92.5272 229 93C227 92 227 92 226 90C225.34 90.33 224.68 90.66 224 91C223.629 90.2575 223.257 89.515 222.875 88.75C220.676 85.5254 218.32 83.9922 215 82C213.824 83.2066 213.824 83.2066 212.625 84.4375C210 87 210 87 208 88C209.194 85.5128 210.495 83.1424 211.875 80.75C214.608 76.0008 217.264 71.207 219 66Z" fill="#26B500"/>
<path d="M67 63C69.2455 65.0963 70.8211 67.1687 72.375 69.8125C74.0212 72.5296 75.731 74.9751 77.8125 77.375C80 80 80 80 80 82C79.01 82.66 78.02 83.32 77 84C76.637 85.9775 76.637 85.9775 76.8125 88.125C76.8744 89.4037 76.9363 90.6825 77 92C73.5349 88.7788 71.4437 85.0288 69 81C68.67 84.63 68.34 88.26 68 92C67.67 92 67.34 92 67 92C66.8904 91.0848 66.7809 90.1695 66.668 89.2266C66.5094 88.038 66.3509 86.8495 66.1875 85.625C66.0367 84.4416 65.8859 83.2583 65.7305 82.0391C65.293 78.7047 65.293 78.7047 62 77C59.525 78.485 59.525 78.485 57 80C55.3057 76.953 54.5053 74.1718 53.875 70.75C53.7074 69.858 53.5398 68.9659 53.3672 68.0469C53.1854 67.0337 53.1854 67.0337 53 66C53.66 66 54.32 66 55 66C55 66.66 55 67.32 55 68C57.7626 68.5973 60.1603 69 63 69C64.9522 67.0478 65.8483 65.468 67 63Z" fill="#45C217"/>
<path d="M199 127C201.187 129.5 201.187 129.5 203 132C203.66 132 204.32 132 205 132C205.33 131.01 205.66 130.02 206 129C206.598 129.206 207.196 129.412 207.812 129.625C210.284 130.307 210.284 130.307 213 128C213 128.66 213 129.32 213 130C214.32 129.67 215.64 129.34 217 129C216.67 129.66 216.34 130.32 216 131C215.34 131 214.68 131 214 131C214 131.66 214 132.32 214 133C213.34 133 212.68 133 212 133C212 133.66 212 134.32 212 135C211.34 135 210.68 135 210 135C209.96 135.562 209.92 136.124 209.879 136.703C208.565 140.137 205.847 141.708 202.937 143.75C202.37 144.161 201.802 144.572 201.217 144.996C199.818 146.007 198.41 147.005 197 148C196.34 147.67 195.68 147.34 195 147C196.65 145.35 198.3 143.7 200 142C198.68 141.67 197.36 141.34 196 141C196 140.34 196 139.68 196 139C195.34 139 194.68 139 194 139C193.34 139.66 192.68 140.32 192 141C191.34 140.01 190.68 139.02 190 138C189.34 137.34 188.68 136.68 188 136C186.68 138.31 185.36 140.62 184 143C183 140 183 140 184.293 137.371C185.231 135.919 185.231 135.919 186.187 134.437C186.8 133.467 187.412 132.496 188.043 131.496C191.045 127.667 194.118 126.146 199 127Z" fill="#15AE00"/>
<path d="M79 80C80.32 80.33 81.64 80.66 83 81C83 81.66 83 82.32 83 83C83.5156 83.0825 84.0312 83.165 84.5625 83.25C87.351 84.108 89.6811 85.4644 92.1836 86.9453C94.7276 88.4225 97.3571 89.7108 100 91C100 91.66 100 92.32 100 93C100.66 93.33 101.32 93.66 102 94C99.2746 96.7254 96.7157 97.1525 93 98C92.01 97.67 91.02 97.34 90 97C89.34 97.66 88.68 98.32 88 99C87.34 99 86.68 99 86 99C85.34 99.99 84.68 100.98 84 102C79.4679 96.9946 76.0801 92.8804 75.7773 85.9531C76.0819 83.2819 77.038 81.805 79 80Z" fill="#07A606"/>
<path d="M115 14C115.866 14.7116 115.866 14.7116 116.75 15.4375C119.754 17.5235 121.686 18.1523 125.324 17.7305C126.104 17.5513 126.884 17.3721 127.688 17.1875C128.475 17.0161 129.263 16.8446 130.074 16.668C132.2 16.1817 132.2 16.1817 133 14C134.33 15.1447 134.33 15.1447 135.688 16.3125C137.665 17.9773 139.411 19.2294 141.688 20.5C144.472 22.3059 145.618 24.0054 147 27C146.67 27.66 146.34 28.32 146 29C145.22 28.844 144.44 28.688 143.637 28.5273C138.14 27.7303 132.627 27.645 127.08 27.4824C125.782 27.4312 125.782 27.4312 124.457 27.3789C123.673 27.3539 122.889 27.3288 122.081 27.303C120 27 120 27 117 25C116.27 22.3984 116.27 22.3984 115.812 19.375C115.654 18.3721 115.495 17.3692 115.332 16.3359C115.222 15.5651 115.113 14.7942 115 14Z" fill="#09B307"/>
<path d="M144.238 180.059C145.052 180.115 145.866 180.172 146.704 180.231C147.995 180.333 147.995 180.333 149.312 180.438C158.004 181.014 166.332 180.854 175 180C173.258 184.844 173.258 184.844 170.938 186.25C162.096 188.507 152.992 188.121 143.938 188.063C142.581 188.057 141.225 188.053 139.869 188.049C136.579 188.037 133.29 188.021 130 188C130.639 187.711 131.279 187.423 131.938 187.125C134.152 186.172 134.152 186.172 135 184C136.924 180.152 140.235 179.733 144.238 180.059Z" fill="#006F01"/>
<path d="M207 1C210.237 1.11561 211.17 2.17726 213.438 4.53906C216.347 8.14514 217.805 11.9486 219.25 16.3125C219.507 17.0607 219.763 17.8089 220.028 18.5798C221.737 23.7337 222.802 28.5499 223 34C221 31 221 31 221 28C220.34 28 219.68 28 219 28C218.67 25.69 218.34 23.38 218 21C217.34 21 216.68 21 216 21C216 20.34 216 19.68 216 19C215.01 19.33 214.02 19.66 213 20C212.34 19.67 211.68 19.34 211 19C210.67 20.65 210.34 22.3 210 24C209.67 24 209.34 24 209 24C208.67 22.02 208.34 20.04 208 18C207.34 21.3 206.68 24.6 206 28C205.34 28 204.68 28 204 28C204.33 24.04 204.66 20.08 205 16C205.66 16 206.32 16 207 16C207 12.7 207 9.4 207 6C205.02 6.33 203.04 6.66 201 7C203 5 205 3 207 1Z" fill="#4CCD06"/>
<path d="M204 168C204 168.66 204 169.32 204 170C203.34 170 202.68 170 202 170C201.794 170.577 201.588 171.155 201.375 171.75C196.299 180.055 181.857 184.153 173 187C170 187.188 170 187.188 168 187C171 185 171 185 173 185C173.217 184.072 173.217 184.072 173.438 183.125C174 181 174 181 175 179C177.066 178.586 177.066 178.586 179.562 178.375C180.802 178.263 180.802 178.263 182.066 178.148C183.024 178.075 183.024 178.075 184 178C182.401 176.1 181.472 175.102 179.007 174.568C177.899 174.528 177.899 174.528 176.77 174.488C175.566 174.435 175.566 174.435 174.338 174.381C173.505 174.358 172.671 174.336 171.812 174.312C170.545 174.261 170.545 174.261 169.252 174.209C167.168 174.127 165.084 174.062 163 174C163 173.67 163 173.34 163 173C177.85 172.505 177.85 172.505 193 172C193 171.34 193 170.68 193 170C196.877 168.807 199.916 168 204 168Z" fill="#209127"/>
<path d="M121 74C123.77 75.385 123.897 76.793 124.875 79.6875C126.067 83.8069 126.227 84.5384 124.25 88.5625C122 91 122 91 121 92C121 92.99 121 93.98 121 95C120.34 95 119.68 95 119 95C119.33 96.32 119.66 97.64 120 99C115.435 98.4566 112.027 97.2054 108 95C108 93.35 108 91.7 108 90C108.66 90 109.32 90 110 90C111.374 88.709 112.709 87.3743 114 86C114.33 85.67 114.66 85.34 115 85C114.67 84.01 114.34 83.02 114 82C114 81.01 114 80.02 114 79C114.804 78.7113 115.609 78.4225 116.438 78.125C119.133 77.2674 119.133 77.2674 120 75C120.33 74.67 120.66 74.34 121 74Z" fill="#11AE00"/>
<path d="M182 33C182.66 33.33 183.32 33.66 184 34C184.99 34 185.98 34 187 34C188.333 34.6667 189.667 35.3333 191 36C191.99 36 192.98 36 194 36C196.342 36.6351 198.677 37.2987 201 38C201 39.98 201 41.96 201 44C200.01 44 199.02 44 198 44C197.34 43.34 196.68 42.68 196 42C194.02 43.65 192.04 45.3 190 47C190 46.34 190 45.68 190 45C187.03 44.67 184.06 44.34 181 44C182.32 45.65 183.64 47.3 185 49C184.67 49.66 184.34 50.32 184 51C178.998 46.9192 177.921 43.3072 177 37C177.66 37 178.32 37 179 37C179 36.34 179 35.68 179 35C179.99 34.34 180.98 33.68 182 33Z" fill="#2BB706"/>
<path d="M160 10C160.495 11.485 160.495 11.485 161 13C160.01 13.33 159.02 13.66 158 14C157.443 13.3606 156.886 12.7212 156.312 12.0625C153.706 9.73822 152.441 9.25181 149 9C146.275 9.37722 146.275 9.37722 144 10C144 9.34 144 8.68 144 8C143.103 8.27843 143.103 8.27843 142.188 8.5625C140 9 140 9 137 8C136.67 8.66 136.34 9.32 136 10C134.68 9.34 133.36 8.68 132 8C132 7.34 132 6.68 132 6C129.69 5.67 127.38 5.34 125 5C125 4.34 125 3.68 125 3C122.03 2.505 122.03 2.505 119 2C119 1.67 119 1.34 119 0.999995C133.571 -0.330239 148.177 -0.0840416 160 10Z" fill="#14C40C"/>
<path d="M196 41C196.33 41.66 196.66 42.32 197 43C197.66 43.33 198.32 43.66 199 44C200 46 200 46 199.074 48.9336C198.617 50.0899 198.159 51.2462 197.688 52.4375C197.013 54.1681 197.013 54.1681 196.324 55.9336C195 59 195 59 193 62C192.34 62 191.68 62 191 62C189.598 59.9883 189.598 59.9883 188.062 57.3125C187.558 56.4424 187.054 55.5723 186.535 54.6758C185.775 53.3513 185.775 53.3513 185 52C184.462 51.1273 183.925 50.2546 183.371 49.3555C182 47 182 47 181 44C181.996 44.1779 181.996 44.1779 183.012 44.3594C188.836 45.3108 188.836 45.3108 194.125 43.0625C195.053 42.0416 195.053 42.0416 196 41Z" fill="#03A600"/>
<path d="M109 51C119.194 61.1935 119.194 61.1935 120 67C118.886 66.67 117.773 66.34 116.625 66C113.305 64.9114 113.305 64.9114 111 65C109.363 66.96 109.363 66.96 108 69C107.67 68.01 107.34 67.02 107 66C106.01 67.32 105.02 68.64 104 70C104 69.34 104 68.68 104 68C103.34 68 102.68 68 102 68C100.676 66.5742 100.676 66.5742 99.3125 64.6875C98.8549 64.0726 98.3973 63.4577 97.9258 62.8242C97.4675 61.9212 97.4675 61.9212 97 61C97.33 60.01 97.66 59.02 98 58C98.99 59.485 98.99 59.485 100 61C100.577 60.5256 101.155 60.0513 101.75 59.5625C103.926 58.0515 105.426 57.4596 108 57C108.33 55.02 108.66 53.04 109 51Z" fill="#37BE00"/>
<path d="M130 8C136.136 8.30679 139.492 11.1915 144 15C144.844 15.7103 145.689 16.4205 146.559 17.1523C151.461 21.4137 155.503 25.5212 159 31C158.67 31.66 158.34 32.32 158 33C152.924 31.8527 148.398 30.756 145.062 26.5664C143.966 24.6667 142.891 22.7547 141.836 20.832C139.216 16.7903 135.82 14.339 131.941 11.5586C130.98 10.7871 130.98 10.7871 130 10C130 9.34 130 8.68 130 8Z" fill="#008500"/>
<path d="M243 86C243.66 86 244.32 86 245 86C243.009 93.895 239.811 100.822 236 108C235.01 108 234.02 108 233 108C233 107.01 233 106.02 233 105C231.68 105.33 230.36 105.66 229 106C228.876 105.361 228.752 104.721 228.625 104.062C228.419 103.382 228.213 102.701 228 102C227.34 101.67 226.68 101.34 226 101C225.67 101.99 225.34 102.98 225 104C224.34 104 223.68 104 223 104C222.01 104.33 221.02 104.66 220 105C220 104.34 220 103.68 220 103C222.055 101.555 222.055 101.555 224.875 99.875C231.372 95.866 237.588 91.4121 243 86Z" fill="#44C700"/>
<path d="M52 86C52.2681 86.6187 52.5363 87.2375 52.8125 87.875C53.9556 90.2995 53.9556 90.2995 57 92C57.99 92 58.98 92 60 92C60.66 91.34 61.32 90.68 62 90C62.99 90 63.98 90 65 90C65.33 90.99 65.66 91.98 66 93C66.99 92.67 67.98 92.34 69 92C69.3651 93.5809 69.7166 95.1648 70.0625 96.75C70.3583 98.0726 70.3583 98.0726 70.6602 99.4219C71 102 71 102 70 106C69.01 103.03 68.02 100.06 67 97C66.01 97.495 66.01 97.495 65 98C64.3423 101.029 64.3423 101.029 64 104C63.67 104 63.34 104 63 104C62.67 102.35 62.34 100.7 62 99C60.02 99.99 60.02 99.99 58 101C57.67 100.67 57.34 100.34 57 100C56.67 101.65 56.34 103.3 56 105C54.68 104.67 53.36 104.34 52 104C50.9583 99.9027 51.0559 96.385 51.4375 92.1875C51.5393 91.0261 51.6412 89.8646 51.7461 88.668C51.8299 87.7875 51.9137 86.9071 52 86Z" fill="#1BB814"/>
<path d="M39 170C40.32 170 41.64 170 43 170C43.9075 170.371 44.815 170.743 45.75 171.125C50.1675 172.314 52.6683 171.344 57 170C57.33 170.99 57.66 171.98 58 173C56.1875 175 56.1875 175 54 177C53.01 177 52.02 177 51 177C50.34 177.66 49.68 178.32 49 179C49 178.01 49 177.02 49 176C48.34 176 47.68 176 47 176C46.01 176 45.02 176 44 176C43.34 176.66 42.68 177.32 42 178C41.34 177.01 40.68 176.02 40 175C37.006 177.056 37.006 177.056 35 180C37.31 182.64 39.62 185.28 42 188C41.67 188.66 41.34 189.32 41 190C39.339 188.475 37.6967 186.929 36.0625 185.375C34.6877 184.087 34.6877 184.087 33.2852 182.773C30.7451 179.691 30.1155 177.959 30 174C32.6007 170.199 34.5182 169.552 39 170Z" fill="#0079CB"/>
<path d="M215 81C222.456 85.8895 222.456 85.8895 224.562 90.1875C225 93 225 93 224 96C223.34 96.66 222.68 97.32 222 98C221.01 97.67 220.02 97.34 219 97C219 96.34 219 95.68 219 95C215.34 93.3855 211.939 92.6267 208 92C207.67 91.67 207.34 91.34 207 91C206.34 91 205.68 91 205 91C205 91.66 205 92.32 205 93C204.34 92.67 203.68 92.34 203 92C203.33 91.34 203.66 90.68 204 90C204.66 90 205.32 90 206 90C206.33 89.01 206.66 88.02 207 87C208.324 86.3151 209.659 85.6513 211 85C212.371 83.7053 213.713 82.3785 215 81Z" fill="#10AF00"/>
<path d="M127 84C128.74 87.1077 129.513 89.9363 130.125 93.4375C130.293 94.3643 130.46 95.2912 130.633 96.2461C130.983 98.8705 131.067 101.356 131 104C130.34 103.34 129.68 102.68 129 102C128.67 102.33 128.34 102.66 128 103C123.327 103 121.176 101.928 117 100C117.949 96.6457 118.897 93.3075 120 90C120.66 90 121.32 90 122 90C123.019 88.3447 124.018 86.6774 125 85C125.66 84.67 126.32 84.34 127 84Z" fill="#06A603"/>
<path d="M47 36C46.4266 38.8672 46.1385 39.8615 44 42C43.01 42.495 43.01 42.495 42 43C41.6906 43.9488 41.3812 44.8975 41.0625 45.875C40.0479 48.8591 39.554 50.2318 37 52C35.68 52 34.36 52 33 52C33 52.99 33 53.98 33 55C33 56.6667 33 58.3333 33 60C32.67 59.34 32.34 58.68 32 58C31.01 58.33 30.02 58.66 29 59C27 56 27 56 27 53C28.8633 50.4062 28.8633 50.4062 31.3125 47.5C32.5133 46.0614 32.5133 46.0614 33.7383 44.5938C41.2319 36 41.2319 36 47 36Z" fill="#016BCA"/>
<path d="M184 134C185.033 136.788 185.045 137.868 184.063 140.75C183.712 141.493 183.361 142.235 183 143C182.34 143 181.68 143 181 143C180.896 143.665 180.791 144.33 180.684 145.016C179.83 148.743 178.484 152.212 177.063 155.75C176.798 156.434 176.533 157.119 176.26 157.824C174.243 162.878 174.243 162.878 172 164C171.28 153.658 173.31 144.154 180 136C182.25 134.625 182.25 134.625 184 134Z" fill="#006C0D"/>
<path d="M188 29C192.385 29.5203 196.673 30.1092 201 31C201.66 31 202.32 31 203 31C204.16 34.4787 203.775 35.3422 202.562 38.6875C202.131 39.8999 202.131 39.8999 201.691 41.1367C201.349 42.059 201.349 42.059 201 43C200.67 41.68 200.34 40.36 200 39C199.464 38.8762 198.928 38.7525 198.375 38.625C196 38 196 38 192.938 36.9375C190.038 35.848 190.038 35.848 187 36C186.01 36 185.02 36 184 36C184 35.01 184 34.02 184 33C185.32 32.34 186.64 31.68 188 31C188 30.34 188 29.68 188 29Z" fill="#37BE00"/>
<path d="M79 80C80.32 80.33 81.64 80.66 83 81C83 81.66 83 82.32 83 83C83.9591 83.1547 83.9591 83.1547 84.9375 83.3125C85.6181 83.5394 86.2987 83.7662 87 84C87.33 84.99 87.66 85.98 88 87C88.66 87.66 89.32 88.32 90 89C86.9119 90.7646 85.7669 91 82 91C81.67 92.98 81.34 94.96 81 97C78.6187 95.2332 77.212 93.7601 76.4063 90.8711C75.8582 87.091 75.5326 84.8332 77.4375 81.4375C77.9531 80.9631 78.4688 80.4888 79 80Z" fill="#13AD03"/>
<path d="M258 62C258.33 62 258.66 62 259 62C259.619 87.7638 259.619 87.7638 256 100C254.664 96.2263 255.276 93.1417 255.938 89.25C256.132 88.0795 256.327 86.9091 256.527 85.7031C256.761 84.3651 256.761 84.3651 257 83C256.381 82.7319 255.762 82.4638 255.125 82.1875C251.984 80.4322 251.114 78.3434 250 75C250.926 73.1758 250.926 73.1758 252.312 71.3125C252.987 70.3786 252.987 70.3786 253.676 69.4258C254.113 68.9553 254.55 68.4848 255 68C255.66 68 256.32 68 257 68C257.33 66.02 257.66 64.04 258 62Z" fill="#22C100"/>
<path d="M50 73C50.33 73 50.66 73 51 73C51.0146 73.8721 51.0292 74.7443 51.0442 75.6428C51.1056 78.9066 51.1798 82.1696 51.2625 85.4329C51.2955 86.84 51.3236 88.2472 51.3464 89.6545C51.3803 91.6882 51.4326 93.7207 51.4883 95.7539C51.5145 96.9741 51.5406 98.1943 51.5676 99.4514C52.0683 103.56 53.23 106.277 55 110C55.5861 111.638 56.1528 113.282 56.6875 114.938C56.9389 115.71 57.1902 116.482 57.4492 117.277C57.631 117.846 57.8127 118.414 58 119C57.34 119.66 56.68 120.32 56 121C55.34 120.67 54.68 120.34 54 120C54 121.65 54 123.3 54 125C47.8367 115.755 49.7733 102.515 49.875 91.875C49.885 90.0417 49.8942 88.2083 49.9023 86.375C49.9242 81.9165 49.9586 77.4583 50 73Z" fill="#008818"/>
<path d="M161 30C162.031 30.3506 163.062 30.7012 164.125 31.0625C167.98 31.9951 170.202 31.9264 174 31C174.33 32.32 174.66 33.64 175 35C175.66 35 176.32 35 177 35C177.66 38.3 178.32 41.6 179 45C176.69 43.68 174.38 42.36 172 41C172 40.34 172 39.68 172 39C171.092 38.7319 170.185 38.4638 169.25 38.1875C166.229 37.0838 164.299 36.2143 162 34C161.25 31.8125 161.25 31.8125 161 30Z" fill="#009307"/>
<path d="M224.562 73.9375C225.769 73.9684 225.769 73.9684 227 74C227.33 74.66 227.66 75.32 228 76C229.65 76 231.3 76 233 76C233 76.99 233 77.98 233 79C233.99 78.67 234.98 78.34 236 78C236 78.66 236 79.32 236 80C237.32 80.66 238.64 81.32 240 82C239.602 84.8858 239.21 85.8219 236.938 87.75C236.298 88.1625 235.659 88.575 235 89C232.845 87.9225 231.659 86.728 230 85C229.34 84.34 228.68 83.68 228 83C228.66 82.34 229.32 81.68 230 81C229.01 80.34 228.02 79.68 227 79C226.01 79.495 226.01 79.495 225 80C224.34 79.01 223.68 78.02 223 77C222.34 76.34 221.68 75.68 221 75C222 74 222 74 224.562 73.9375Z" fill="#2EBB00"/>
<path d="M64 35C64.99 36.32 65.98 37.64 67 39C66.34 39.66 65.68 40.32 65 41C65 41.99 65 42.98 65 44C65.66 44.33 66.32 44.66 67 45C67.3125 48.25 67.3125 48.25 67 52C64.5 54.4375 64.5 54.4375 62 56C60.68 55.34 59.36 54.68 58 54C58 52.68 58 51.36 58 50C58.99 50 59.98 50 61 50C61 49.01 61 48.02 61 47C60.34 47 59.68 47 59 47C59.5763 42.2452 61.5507 39.0295 64 35Z" fill="#45C900"/>
<path d="M137 6C137.866 6.46406 137.866 6.46406 138.75 6.9375C142.223 8.57738 144.152 9.15894 148 8.4375C151.229 7.96664 152.328 8.25263 155 10C154.67 10.99 154.34 11.98 154 13C150.938 14.1875 150.938 14.1875 148 15C148.66 16.32 149.32 17.64 150 19C145.392 17.5092 142.605 15.1241 139 12C138.34 11.67 137.68 11.34 137 11C136.312 9 136.312 9 136 7C136.33 6.67 136.66 6.34 137 6Z" fill="#05BC00"/>
<path d="M71 71C72.132 71.908 73.2553 72.8268 74.375 73.75C75.0015 74.2605 75.628 74.7709 76.2734 75.2969C78.0831 77.082 79.0012 78.6795 80 81C79.505 81.33 79.01 81.66 78.5 82C76.1182 85.1757 76.8083 88.1025 77 92C74.7132 89.8477 72.9496 87.6394 71.25 85C70.8014 84.3194 70.3528 83.6388 69.8906 82.9375C69 81 69 81 70 78C70.33 78.33 70.66 78.66 71 79C71 76.36 71 73.72 71 71Z" fill="#43BE28"/>
<path d="M169 148C172.021 151.021 171.467 154.564 171.625 158.625C171.664 159.427 171.702 160.229 171.742 161.055C171.837 163.036 171.919 165.018 172 167C173.32 167.33 174.64 167.66 176 168C173.688 168.312 173.688 168.312 171 168C169.312 165.562 169.312 165.562 168 163C167.34 162.67 166.68 162.34 166 162C164.93 160.152 164.93 160.152 163.875 157.938C163.522 157.204 163.169 156.471 162.805 155.715C162.539 155.149 162.274 154.583 162 154C162.66 154 163.32 154 164 154C164.33 153.34 164.66 152.68 165 152C165.99 151.67 166.98 151.34 168 151C168.33 150.01 168.66 149.02 169 148Z" fill="#267CBA"/>
<path d="M234 110C234.66 110 235.32 110 236 110C233.94 115.545 231.508 120.074 227 124C226.34 124 225.68 124 225 124C226.545 120.693 228.428 117.753 230.5 114.75C231.108 113.858 231.717 112.966 232.344 112.047C232.89 111.371 233.437 110.696 234 110ZM224 124C224 128.187 221.792 130.142 219 133C216.81 134.945 214.521 136.731 212.188 138.5C211.573 138.974 210.959 139.448 210.326 139.937C208.556 141.299 206.78 142.651 205 144C204.112 144.674 203.224 145.348 202.309 146.043C200.546 147.371 198.774 148.687 197 150C196.34 149.67 195.68 149.34 195 149C195.99 148.215 196.98 147.43 198 146.621C207.039 139.435 215.925 132.277 224 124Z" fill="#009100"/>
<path d="M17 72C17.33 72.66 17.66 73.32 18 74C18.99 74 19.98 74 21 74C21.66 73.34 22.32 72.68 23 72C23.66 72.33 24.32 72.66 25 73C25 73.66 25 74.32 25 75C25.99 74.67 26.98 74.34 28 74C28 76.97 28 79.94 28 83C27.01 82.01 26.02 81.02 25 80C21.875 79.6626 21.875 79.6626 19.8125 82C19.2144 82.66 18.6162 83.32 18 84C16.4375 82.375 16.4375 82.375 15 80C15.2414 76.9827 15.6464 74.7072 17 72Z" fill="#006AC5"/>
<path d="M208 16C211 16 211 16 212.562 17.5C213.037 17.995 213.511 18.49 214 19C214.66 19 215.32 19 216 19C216 19.66 216 20.32 216 21C216.66 21 217.32 21 218 21C218.33 23.31 218.66 25.62 219 28C213.25 28.125 213.25 28.125 211 27C210.34 28.32 209.68 29.64 209 31C208.638 28.8763 208.286 26.751 207.937 24.625C207.74 23.4416 207.543 22.2583 207.34 21.0391C207 18 207 18 208 16Z" fill="#27C500"/>
<path d="M207 20C207.33 20 207.66 20 208 20C208.027 22.3542 208.047 24.7082 208.062 27.0625C208.074 28.3735 208.086 29.6845 208.098 31.0352C207.966 36.3628 207.791 41.3486 205 46C203.68 45.34 202.36 44.68 201 44C201.742 38.7313 203.109 33.7302 204.562 28.625C204.796 27.7936 205.03 26.9621 205.271 26.1055C205.845 24.0695 206.422 22.0346 207 20Z" fill="#009100"/>
<path d="M177 37C178.145 37.495 178.145 37.495 179.312 38C181.991 39.1744 181.991 39.1744 185 39C186.333 39.6667 187.667 40.3333 189 41C189.99 41 190.98 41 192 41C192.66 41.33 193.32 41.66 194 42C194 42.66 194 43.32 194 44C192 45.625 192 45.625 190 47C190 46.34 190 45.68 190 45C187.03 44.67 184.06 44.34 181 44C182.32 45.65 183.64 47.3 185 49C184.67 49.66 184.34 50.32 184 51C178.998 46.9192 177.921 43.3072 177 37Z" fill="#10AE00"/>
<path d="M53 68C53.33 68.66 53.66 69.32 54 70C54.66 70.33 55.32 70.66 56 71C55.34 71 54.68 71 54 71C54.3444 73.4727 54.3444 73.4727 55 76C57.1179 77.1179 57.1179 77.1179 60 78C60.66 77.34 61.32 76.68 62 76C62.99 76.99 63.98 77.98 65 79C64 82 64 82 62.1875 83.25C59.6113 84.1333 58.5461 83.8213 56 83C55.01 83 54.02 83 53 83C53.33 82.01 53.66 81.02 54 80C53.34 80 52.68 80 52 80C52.33 76.04 52.66 72.08 53 68Z" fill="#2EBD00"/>
<path d="M194 61C194.248 61.6394 194.495 62.2788 194.75 62.9375C195.799 65.1586 195.799 65.1586 197.938 65.6875C198.618 65.7906 199.299 65.8937 200 66C200.99 66.33 201.98 66.66 203 67C202.01 72.28 201.02 77.56 200 83C198.547 80.0939 197.508 77.6705 196.562 74.625C195.354 70.8834 193.794 67.5029 192 64C192 63.34 192 62.68 192 62C192.66 61.67 193.32 61.34 194 61Z" fill="#006908"/>
<path d="M51 62C51.33 62 51.66 62 52 62C51.9343 62.6063 51.8687 63.2125 51.801 63.8372C50.9545 72.2779 50.6774 80.7138 50.4375 89.1875C50.3942 90.6309 50.3506 92.0742 50.3066 93.5176C50.201 97.0116 50.0993 100.506 50 104C49.34 104 48.68 104 48 104C47.9257 98.8222 47.8713 93.6447 47.8352 88.4666C47.8201 86.7061 47.7997 84.9456 47.7737 83.1853C47.7372 80.6508 47.7202 78.1168 47.707 75.582C47.6838 74.4067 47.6838 74.4067 47.6601 73.2077C47.6587 68.6282 48.1378 65.6397 51 62Z" fill="#00398B"/>
<path d="M161 174C168.59 174 176.18 174 184 174C183.34 174.66 182.68 175.32 182 176C183.32 176.66 184.64 177.32 186 178C182.266 178.879 178.832 179.089 175 179C175 178.34 175 177.68 175 177C174.408 177.023 173.817 177.046 173.207 177.07C168.662 177.174 165.141 177.137 161 175C161 174.67 161 174.34 161 174Z" fill="#008100"/>
<path d="M170 83C171.98 83.66 173.96 84.32 176 85C177.294 89.4813 176.613 92.8149 175.562 97.3125C175.275 98.5668 174.988 99.821 174.691 101.113C174.463 102.066 174.235 103.019 174 104C173.67 104 173.34 104 173 104C172.963 103.192 172.925 102.384 172.887 101.551C172.821 100.482 172.755 99.4135 172.688 98.3125C172.629 97.2568 172.571 96.201 172.512 95.1133C171.951 91.7002 171.127 89.7179 169 87C165.401 86.1041 165.401 86.1041 162 86C162 85.67 162 85.34 162 85C163.134 84.8556 164.269 84.7113 165.438 84.5625C168.808 84.3883 168.808 84.3883 170 83Z" fill="#3189D2"/>
<path d="M215.625 26.9375C217.129 27.2295 217.129 27.2295 218.664 27.5273C219.82 27.7613 219.82 27.7613 221 28C220.67 30.31 220.34 32.62 220 35C216.7 34.34 213.4 33.68 210 33C209.67 33.66 209.34 34.32 209 35C208 34 208 34 207.938 30.4375C207.958 29.3031 207.979 28.1688 208 27C210.815 25.5926 212.569 26.3335 215.625 26.9375Z" fill="#0CBD00"/>
<path d="M252 76C252.33 76.66 252.66 77.32 253 78C253.66 77.67 254.32 77.34 255 77C255.33 79.64 255.66 82.28 256 85C254.02 85.66 252.04 86.32 250 87C249.711 86.3606 249.423 85.7212 249.125 85.0625C248.172 82.8479 248.172 82.8479 246 82C246 82.66 246 83.32 246 84C246.66 84.33 247.32 84.66 248 85C246.68 84.67 245.36 84.34 244 84C246.811 76 246.811 76 252 76Z" fill="#15BC00"/>
<path d="M96 33C103.263 35.4211 106.662 41.0607 111 47C112.019 48.3632 112.019 48.3632 113.059 49.7539C113.761 50.7014 114.464 51.6488 115.188 52.625C115.841 53.5041 116.495 54.3833 117.168 55.2891C119.076 58.1128 120.653 60.8683 122 64C121.67 64.66 121.34 65.32 121 66C120.381 64.9688 119.762 63.9375 119.125 62.875C112.868 52.9337 106.397 43.867 97.8359 35.793C97.2301 35.2013 96.6242 34.6096 96 34C96 33.67 96 33.34 96 33Z" fill="#005CB4"/>
<path d="M207 1C208.75 1.0625 208.75 1.0625 211 2C215.929 7.38792 217.134 9.76547 217 17C215 15 215 15 214.312 11.5C213.879 10.345 213.446 9.19 213 8C208.704 6.05485 205.517 5.63114 201 7C203 5 205 3 207 1Z" fill="#57D024"/>
<path d="M183 178C183 178.66 183 179.32 183 180C184.32 180.33 185.64 180.66 187 181C180.627 184.175 175.151 186.595 168 187C171 185 171 185 173 185C173.144 184.381 173.289 183.762 173.438 183.125C174 181 174 181 175 179C177.699 178.426 180.238 178 183 178Z" fill="#3B9341"/>
<path d="M54 165C54.66 165 55.32 165 56 165C57.3959 166.55 58.7189 168.166 60 169.812C60.7013 170.706 61.4025 171.599 62.125 172.52C63.4741 174.304 64.7589 176.138 66 178C65.01 178.99 64.02 179.98 63 181C62.34 180.34 61.68 179.68 61 179C60.01 179 59.02 179 58 179C57.34 179 56.68 179 56 179C56.2269 177.989 56.4537 176.979 56.6875 175.938C57.067 171.156 56.1403 169.195 54 165Z" fill="#2E8DD3"/>
<path d="M244 149C242.401 154.196 240.259 159.066 238 164C237.34 163.67 236.68 163.34 236 163C236 161.68 236 160.36 236 159C234.35 160.32 232.7 161.64 231 163C231.422 158.155 233.328 156.31 236.938 153.188C237.833 152.397 238.729 151.607 239.652 150.793C242 149 242 149 244 149Z" fill="#63A6DD"/>
<path d="M204 168C204 168.66 204 169.32 204 170C203.34 170 202.68 170 202 170C201.794 170.577 201.588 171.155 201.375 171.75C199.463 174.879 197.181 176.247 194 178C193.01 177.67 192.02 177.34 191 177C192.32 176.67 193.64 176.34 195 176C195 175.01 195 174.02 195 173C192.69 173.33 190.38 173.66 188 174C187.67 173.34 187.34 172.68 187 172C188.98 172 190.96 172 193 172C193 171.34 193 170.68 193 170C196.877 168.807 199.916 168 204 168Z" fill="#6EB577"/>
<path d="M137 114C137.66 114 138.32 114 139 114C139.208 114.715 139.415 115.431 139.629 116.168C142.183 124.43 145.712 131.532 150 139C149.01 139 148.02 139 147 139C145.43 137.207 145.43 137.207 143.875 134.812C143.357 134.035 142.839 133.258 142.305 132.457C140.951 129.907 140.481 127.829 140 125C139.267 122.927 138.449 120.904 137.621 118.867C137 117 137 117 137 114Z" fill="#005794"/>
<path d="M127 186C127 186.66 127 187.32 127 188C140.53 187.67 154.06 187.34 168 187C168 187.33 168 187.66 168 188C162.4 188.796 156.988 189.148 151.336 189.133C150.54 189.134 149.745 189.135 148.925 189.136C147.256 189.136 145.587 189.135 143.918 189.13C141.375 189.125 138.832 189.13 136.289 189.137C134.659 189.136 133.029 189.135 131.398 189.133C130.645 189.135 129.892 189.137 129.116 189.139C124.973 189.121 121.065 188.807 117 188C117 187.67 117 187.34 117 187C120.435 186.375 123.491 186 127 186Z" fill="#75AD83"/>
<path d="M114 0C120.27 0 126.54 0 133 0C133 0.33 133 0.66 133 1C127.06 1.495 127.06 1.495 121 2C122.32 2.33 123.64 2.66 125 3C125 3.66 125 4.32 125 5C127.31 5.33 129.62 5.66 132 6C132 6.66 132 7.32 132 8C131.34 8 130.68 8 130 8C129.67 8.66 129.34 9.32 129 10C128.67 9.01 128.34 8.02 128 7C126.948 6.84531 126.948 6.84531 125.875 6.6875C120.91 5.50011 117.605 3.60504 114 0Z" fill="#00B200"/>
<path d="M198 79C200.45 82.7424 200.231 86.4423 200.125 90.75C200.116 91.4474 200.107 92.1448 200.098 92.8633C200.074 94.5757 200.038 96.2879 200 98C199.67 96.68 199.34 95.36 199 94C197.68 93.67 196.36 93.34 195 93C195.33 92.67 195.66 92.34 196 92C195.794 90.7625 195.588 89.525 195.375 88.25C194.896 84.9614 194.931 84.1438 196.438 81C196.953 80.34 197.469 79.68 198 79Z" fill="#0073BC"/>
<path d="M130 8C135.87 8.29352 139.856 11.0241 144 15C144.33 15.99 144.66 16.98 145 18C145.66 18.33 146.32 18.66 147 19C146.67 19.99 146.34 20.98 146 22C143.667 19.6667 141.333 17.3333 139 15C137.824 14.5359 137.824 14.5359 136.625 14.0625C133.999 12.9995 132.113 11.8781 130 10C130 9.34 130 8.68 130 8Z" fill="#009500"/>
<path d="M187 51C189.64 51.33 192.28 51.66 195 52C196.041 55.3131 196.186 56.602 194.688 59.8125C194.131 60.5344 193.574 61.2563 193 62C192.34 62 191.68 62 191 62C190.329 60.5437 189.663 59.0849 189 57.625C188.629 56.8129 188.257 56.0008 187.875 55.1641C187 53 187 53 187 51Z" fill="#029B03"/>
<path d="M206 5C208 7 208 7 208.25 10.5C208 14 208 14 206 16C205.67 15.01 205.34 14.02 205 13C203.68 13.33 202.36 13.66 201 14C201 13.34 201 12.68 201 12C199.68 11.67 198.36 11.34 197 11C199.773 7.9191 202.063 6.31225 206 5Z" fill="#4BCE00"/>
<path d="M142 48C148.737 49.7301 155.36 51.7859 161 56C161.33 56.99 161.66 57.98 162 59C157.858 58.3822 154.647 56.9806 150.938 55.0625C149.915 54.5379 148.893 54.0132 147.84 53.4727C146.903 52.9867 145.966 52.5007 145 52C143.668 51.3307 142.335 50.6628 141 50C141.33 49.34 141.66 48.68 142 48Z" fill="#3797DB"/>
<path d="M195 160C197.31 160 199.62 160 202 160C194.893 166.005 185.041 167.613 176 167C176.99 166.67 177.98 166.34 179 166C179 165.34 179 164.68 179 164C181.97 164.495 181.97 164.495 185 165C185 164.34 185 163.68 185 163C185.957 162.927 185.957 162.927 186.934 162.852C187.76 162.777 188.586 162.702 189.438 162.625C190.673 162.521 190.673 162.521 191.934 162.414C192.616 162.277 193.297 162.141 194 162C194.33 161.34 194.66 160.68 195 160Z" fill="#4EAC5A"/>
<path d="M184 134C185.033 136.788 185.045 137.868 184.063 140.75C183.712 141.493 183.361 142.235 183 143C182.34 143 181.68 143 181 143C181 143.99 181 144.98 181 146C180.01 146.33 179.02 146.66 178 147C177.104 143.498 176.733 141.619 178.188 138.25C180.022 135.973 181.296 135.026 184 134Z" fill="#007700"/>
<path d="M112 0C113.98 0.99 113.98 0.99 116 2C115.988 2.61488 115.977 3.22977 115.965 3.86328C115.956 4.67152 115.947 5.47977 115.938 6.3125C115.926 7.11301 115.914 7.91352 115.902 8.73828C115.903 11.1686 115.903 11.1686 117 14C116.34 14 115.68 14 115 14C115.33 15.98 115.66 17.96 116 20C112.577 16.577 112.088 11.9361 111.875 7.25C111.875 4.82992 111.911 2.41831 112 0Z" fill="#1AC512"/>
<path d="M152 24C156 25.3333 156.838 27.4958 159 31C158.67 31.66 158.34 32.32 158 33C153.05 31.02 153.05 31.02 148 29C149 26 149 26 152 24Z" fill="#007A08"/>
<path d="M47 36C46.4266 38.8672 46.1385 39.8615 44 42C43.01 42.495 43.01 42.495 42 43C41.3444 45.5273 41.3444 45.5273 41 48C39 45 39 45 39 42C37.68 43.32 36.36 44.64 35 46C34.34 45.67 33.68 45.34 33 45C41.4 36 41.4 36 47 36Z" fill="#5F9FDA"/>
<path d="M186 127C187.32 127.33 188.64 127.66 190 128C188.832 131.323 187.851 133.834 185 136C182 136 182 136 180 135C181.98 132.36 183.96 129.72 186 127Z" fill="#008601"/>
<path d="M122 163C127.266 163.596 131.944 164.813 136.938 166.562C137.963 166.913 137.963 166.913 139.01 167.271C140.675 167.842 142.338 168.42 144 169C142.02 169.99 142.02 169.99 140 171C139.67 170.34 139.34 169.68 139 169C137.886 169.021 136.773 169.041 135.625 169.062C132 169 132 169 130 168C130 167.34 130 166.68 130 166C129.01 166.33 128.02 166.66 127 167C127 166.34 127 165.68 127 165C125.35 165 123.7 165 122 165C122 164.34 122 163.68 122 163Z" fill="#5DA969"/>
<path d="M126 60C128.98 62.4777 129.774 64.7947 130.75 68.5C131.144 69.9386 131.144 69.9386 131.547 71.4062C132 74 132 74 131 77C126.227 66.5738 126.227 66.5738 125 62C125.33 61.34 125.66 60.68 126 60ZM132 62C132.66 62.66 133.32 63.32 134 64C133.01 64 132.02 64 131 64C131.33 63.34 131.66 62.68 132 62Z" fill="#0080DA"/>
<path d="M13 146C14.9451 148.918 15.4528 150.625 16 154C16.66 154 17.32 154 18 154C18.8688 155.575 19.7196 157.161 20.5625 158.75C21.0382 159.632 21.5138 160.513 22.0039 161.422C23.08 164.207 23.0653 165.27 22 168C21.8762 167.361 21.7525 166.721 21.625 166.062C21.4188 165.382 21.2125 164.701 21 164C20.34 163.67 19.68 163.34 19 163C17.887 160.933 16.8571 158.82 15.875 156.688C15.3362 155.536 14.7973 154.385 14.2422 153.199C13 150 13 150 13 146Z" fill="#75AADC"/>
<path d="M174 56C175.667 56 177.333 56 179 56C179.333 58 179.667 60 180 62C180.206 63.0725 180.412 64.145 180.625 65.25C181 68 181 68 180 70C179.34 70 178.68 70 178 70C178.083 69.2987 178.165 68.5975 178.25 67.875C177.92 64.0786 176.148 62.088 174 59C174 58.01 174 57.02 174 56Z" fill="#549EDC"/>
<path d="M177 195C177 195.99 177 196.98 177 198C165.478 201.629 165.478 201.629 160 200C163.125 198.297 166.19 197.292 169.625 196.375C170.587 196.115 171.548 195.854 172.539 195.586C175 195 175 195 177 195Z" fill="#2B92D7"/>
<path d="M127 135C135.571 136 135.571 136 139 137C139 137.66 139 138.32 139 139C141.31 139.66 143.62 140.32 146 141C142.026 142.564 139.186 141.361 135.25 140.062C134.08 139.682 132.909 139.302 131.703 138.91C130.811 138.61 129.919 138.309 129 138C129 137.34 129 136.68 129 136C128.34 135.67 127.68 135.34 127 135Z" fill="#77B37E"/>
<path d="M125 126C128 129.75 128 129.75 128 132C128.66 131.34 129.32 130.68 130 130C130.66 130.66 131.32 131.32 132 132C132.66 132.33 133.32 132.66 134 133C134 133.99 134 134.98 134 136C132.082 135.845 132.082 135.845 130.125 135.688C129.046 135.6 129.046 135.6 127.945 135.512C126 135 126 135 124 132C124.375 128.812 124.375 128.812 125 126Z" fill="#007E01"/>
<path d="M218 16C220.519 18.5188 220.826 20.4364 221.687 23.875C221.959 24.9243 222.231 25.9736 222.512 27.0547C222.975 29.8517 222.946 31.3722 222 34C221.67 32.02 221.34 30.04 221 28C220.34 28 219.68 28 219 28C218.638 26.3768 218.285 24.7514 217.937 23.125C217.74 22.2201 217.543 21.3152 217.34 20.3828C217 18 217 18 218 16Z" fill="#6BD25C"/>
<path d="M207 20C207.33 20 207.66 20 208 20C208 24.95 208 29.9 208 35C206.68 34.67 205.36 34.34 204 34C204.309 32.041 204.622 30.0828 204.938 28.125C205.112 27.0345 205.286 25.9439 205.465 24.8203C206 22 206 22 207 20Z" fill="#00A300"/>
<path d="M115 2C118.083 3.199 121.063 4.477 124 6C123.67 6.99 123.34 7.98 123 9C122.051 8.79375 121.103 8.5875 120.125 8.375C118.578 8.18937 118.578 8.18937 117 8C116.34 8.66 115.68 9.32 115 10C115 7.36 115 4.72 115 2Z" fill="#1DC400"/>
<path d="M169 151C168.67 154.3 168.34 157.6 168 161C167.67 160.34 167.34 159.68 167 159C166.01 158.67 165.02 158.34 164 158C162.812 155.938 162.812 155.938 162 154C162.66 154 163.32 154 164 154C164.33 153.34 164.66 152.68 165 152C168 151 168 151 169 151Z" fill="#1D79C6"/>
<path d="M196 41C196.33 41.66 196.66 42.32 197 43C197.66 43.33 198.32 43.66 199 44C199.33 44.66 199.66 45.32 200 46C199.062 48.125 199.062 48.125 198 50C197.01 49.34 196.02 48.68 195 48C194.01 47.67 193.02 47.34 192 47C192 46.01 192 45.02 192 44C194 42.3125 194 42.3125 196 41Z" fill="#10AE00"/>
<path d="M150 5C153.591 6.33371 156.846 7.80987 160 10C160.33 10.99 160.66 11.98 161 13C160.01 13.33 159.02 13.66 158 14C157.134 13.0719 157.134 13.0719 156.25 12.125C154.198 10.1865 152.566 9.09986 150 8C150 7.01 150 6.02 150 5Z" fill="#55CA51"/>
<path d="M211 3C216.98 8.82644 216.98 8.82644 217.062 13.625C217.042 14.7387 217.021 15.8525 217 17C215 15 215 15 214.062 11.4375C213.712 10.3031 213.361 9.16875 213 8C212.01 7.67 211.02 7.34 210 7C210.33 5.68 210.66 4.36 211 3Z" fill="#64D552"/>
<path d="M36 130C37.9139 132.871 38.9643 135.334 40.125 138.562C40.4782 139.533 40.8314 140.504 41.1953 141.504C42 144 42 144 42 146C41.01 146 40.02 146 39 146C37.352 142.336 36.6642 139.188 36.375 135.188C36.3002 134.212 36.2255 133.236 36.1484 132.23C36.0995 131.494 36.0505 130.758 36 130Z" fill="#468FD0"/>
<path d="M220 148C220.33 148.66 220.66 149.32 221 150C219.339 150.949 217.678 151.898 216.016 152.844C214.688 153.606 213.364 154.376 212.047 155.156C207.213 158 207.213 158 205 158C205.33 157.01 205.66 156.02 206 155C207.32 155 208.64 155 210 155C210.33 154.01 210.66 153.02 211 152C212.977 151.269 214.981 150.606 217 150C217.99 149.34 218.98 148.68 220 148Z" fill="#76BE80"/>
<path d="M128 82C128.33 82.66 128.66 83.32 129 84C129.66 84.33 130.32 84.66 131 85C132.322 87.6446 132.097 89.6776 132.062 92.625C132.053 93.6279 132.044 94.6308 132.035 95.6641C132.024 96.4349 132.012 97.2058 132 98C128.442 94.4422 128.048 89.3529 127.875 84.5C127.916 83.675 127.957 82.85 128 82Z" fill="#0055B3"/>
<path d="M256 79C256.99 79.33 257.98 79.66 259 80C258.564 86.8894 257.916 93.3575 256 100C254.299 95.2366 255.807 90.7185 256.723 85.8984C256.86 84.4637 256.86 84.4637 257 83C256.34 82.34 255.68 81.68 255 81C255.33 80.34 255.66 79.68 256 79Z" fill="#4AC840"/>
<path d="M248 64C250.97 64 253.94 64 257 64C257.33 65.32 257.66 66.64 258 68C257.34 68.66 256.68 69.32 256 70C251.125 67.25 251.125 67.25 250 65C249.34 64.67 248.68 64.34 248 64Z" fill="#45CA00"/>
<path d="M64 35C64.99 36.32 65.98 37.64 67 39C64.3333 41.6667 61.6667 44.3333 59 47C59.5763 42.2452 61.5507 39.0295 64 35Z" fill="#2BC600"/>
<path d="M28 50C28 52.6667 28 55.3333 28 58C27.01 58.33 26.02 58.66 25 59C24.67 59.66 24.34 60.32 24 61C23.01 60.67 22.02 60.34 21 60C21.9778 58.5199 22.9572 57.0409 23.9375 55.5625C24.4828 54.7388 25.028 53.9151 25.5898 53.0664C27 51 27 51 28 50Z" fill="#599CD9"/>
<path d="M103 183C104.416 182.946 105.833 182.907 107.25 182.875C108.039 182.852 108.828 182.829 109.641 182.805C112.246 183.02 113.8 183.608 116 185C116.33 185.66 116.66 186.32 117 187C112.131 186.404 107.672 185.43 103 184C103 183.67 103 183.34 103 183Z" fill="#72A97E"/>
<path d="M65 96C65.99 96 66.98 96 68 96C68.7995 99.287 69.0966 100.71 68 104C66.68 103.34 65.36 102.68 64 102C63.9573 100.334 63.9594 98.6662 64 97C64.33 96.67 64.66 96.34 65 96Z" fill="#0EAC00"/>
<path d="M156 57C157.316 57.4495 158.627 57.9099 159.938 58.375C161.034 58.7579 161.034 58.7579 162.152 59.1484C164 60 164 60 165 62C164.67 62.66 164.34 63.32 164 64C159.645 62.8386 157.354 61.923 155 58C155.33 57.67 155.66 57.34 156 57Z" fill="#0F86D7"/>
<path d="M116 7C118.64 7.33 121.28 7.66 124 8C123.67 9.32 123.34 10.64 123 12C122.01 12 121.02 12 120 12C119.01 12.495 119.01 12.495 118 13C117.01 12.01 116.02 11.02 115 10C115.33 9.01 115.66 8.02 116 7Z" fill="#01C300"/>
<path d="M80 166C83.1612 167.37 83.9927 167.989 86 171C86 171.66 86 172.32 86 173C86.33 173.66 86.66 174.32 87 175C84.625 174.438 84.625 174.438 82 173C80.6875 169.375 80.6875 169.375 80 166Z" fill="#49964F"/>
<path d="M61 98C61.66 98.33 62.32 98.66 63 99C62.67 100.65 62.34 102.3 62 104C61.01 104.33 60.02 104.66 59 105C58.01 104.01 57.02 103.02 56 102C56.33 101.01 56.66 100.02 57 99C58.98 99.495 58.98 99.495 61 100C61 99.34 61 98.68 61 98Z" fill="#11AE00"/>
<path d="M65 74C65.33 74 65.66 74 66 74C66.748 81.0264 67.1379 87.9339 67 95C66.67 95 66.34 95 66 95C63.601 87.803 64.1565 81.4774 65 74Z" fill="#02AD00"/>
<path d="M17 65C17.66 65.33 18.32 65.66 19 66C17.3604 71.2327 15.6105 76.152 13 81C11.647 76.9409 12.8478 75.2285 14.4375 71.3125C14.9106 70.133 15.3837 68.9535 15.8711 67.7383C16.2436 66.8346 16.6162 65.931 17 65Z" fill="#8CB7E2"/>
<path d="M177 37C177.99 37.33 178.98 37.66 180 38C180.083 39.0725 180.165 40.145 180.25 41.25C181.055 45.2738 181.877 46.4817 185 49C184.67 49.66 184.34 50.32 184 51C178.998 46.9192 177.921 43.3072 177 37Z" fill="#4FBB33"/>
<path d="M84 88C83.67 88.99 83.34 89.98 83 91C82.67 91 82.34 91 82 91C81.67 92.98 81.34 94.96 81 97C79.4375 95.8125 79.4375 95.8125 78 94C78.3125 91.3125 78.3125 91.3125 79 89C82 88 82 88 84 88Z" fill="#20AF1E"/>
<path d="M169 23C172.132 24.08 173.006 25.0095 174.812 27.875C175.991 30.9768 176.261 32.0201 175 35C174.34 33.02 173.68 31.04 173 29C172.34 29 171.68 29 171 29C170.34 27.02 169.68 25.04 169 23Z" fill="#56BA5D"/>
<path d="M203 181C203.66 181.33 204.32 181.66 205 182C203.198 183.802 201.451 185.164 199.375 186.625C198.743 187.071 198.112 187.517 197.461 187.977C196.979 188.314 196.497 188.652 196 189C195.01 188.34 194.02 187.68 193 187C194.619 185.97 196.245 184.951 197.875 183.938C198.78 183.369 199.685 182.801 200.617 182.215C201.797 181.613 201.797 181.613 203 181Z" fill="#63A9DF"/>
<path d="M142 131C145.773 132.02 146.802 132.659 148.812 136.125C149.204 137.074 149.596 138.022 150 139C149.01 139 148.02 139 147 139C145.613 137.504 145.613 137.504 144.312 135.562C143.876 134.924 143.439 134.286 142.988 133.629C142 132 142 132 142 131Z" fill="#00509E"/>
<path d="M113 98C114.32 98 115.64 98 117 98C117.66 98.66 118.32 99.32 119 100C119.99 100.33 120.98 100.66 122 101C122 101.66 122 102.32 122 103C119 104 119 104 116.375 102.75C114 101 114 101 113 98Z" fill="#009800"/>
<path d="M250 62C249.01 62.33 248.02 62.66 247 63C247 63.66 247 64.32 247 65C243.305 65.9503 240.695 65.9503 237 65C241.456 62.0291 244.679 61.8791 250 62Z" fill="#78D765"/>
<path d="M222 50C222.33 50 222.66 50 223 50C223.236 55.7781 222.868 60.5132 221 66C219.824 62.3259 219.926 58.8307 220 55C220.66 55 221.32 55 222 55C222 53.35 222 51.7 222 50Z" fill="#4CB65E"/>
<path d="M110.188 27.9375C112.075 27.9684 112.075 27.9684 114 28C113.361 28.1238 112.721 28.2475 112.062 28.375C111.382 28.5813 110.701 28.7875 110 29C109.67 29.66 109.34 30.32 109 31C105.753 32.2757 103.33 31.8324 100 31C103.576 28.6158 105.983 27.8686 110.188 27.9375Z" fill="#6AB5E6"/>
<path d="M243 120C243.99 120.33 244.98 120.66 246 121C244.02 124.3 242.04 127.6 240 131C239.34 130.67 238.68 130.34 238 130C238.474 129.443 238.949 128.886 239.438 128.312C241.13 125.808 241.522 123.949 242 121C242.33 120.67 242.66 120.34 243 120Z" fill="#72C27B"/>
<path d="M172 104C172.99 104.33 173.98 104.66 175 105C175.33 105.99 175.66 106.98 176 108C174.062 110.688 174.062 110.688 172 113C171.876 112.361 171.752 111.721 171.625 111.062C171.316 110.042 171.316 110.042 171 109C170.34 108.67 169.68 108.34 169 108C169.99 106.68 170.98 105.36 172 104Z" fill="#1775CB"/>
<path d="M38 50C38.33 50.66 38.66 51.32 39 52C38.01 53.32 37.02 54.64 36 56C35.67 55.67 35.34 55.34 35 55C34.34 55.66 33.68 56.32 33 57C33 56.34 33 55.68 33 55C32.34 54.67 31.68 54.34 31 54C33 51 33 51 35.625 50.3125C36.4087 50.2094 37.1925 50.1063 38 50Z" fill="#318CD5"/>
<path d="M162 147C162.99 147.66 163.98 148.32 165 149C164.526 149.454 164.051 149.907 163.562 150.375C161.91 151.933 161.91 151.933 161 154C159.35 152.02 157.7 150.04 156 148C158.97 148.495 158.97 148.495 162 149C162 148.34 162 147.68 162 147Z" fill="#569AD3"/>
<path d="M170 83C171.32 83.66 172.64 84.32 174 85C172.793 86.5508 172.793 86.5508 171 88C168.738 87.8555 168.738 87.8555 166.312 87.1875C165.1 86.8685 165.1 86.8685 163.863 86.543C162.941 86.2742 162.941 86.2742 162 86C162 85.67 162 85.34 162 85C163.134 84.8556 164.269 84.7113 165.438 84.5625C168.808 84.3883 168.808 84.3883 170 83Z" fill="#4997D8"/>
<path d="M38 44C38.66 44.33 39.32 44.66 40 45C39.67 46.65 39.34 48.3 39 50C37.35 49.67 35.7 49.34 34 49C35.32 47.35 36.64 45.7 38 44Z" fill="#0D78CF"/>
<path d="M206 5C208 7 208 7 208.25 10.5C208 14 208 14 206 16C204.96 12.6191 204.843 9.52637 205 6C205.33 5.67 205.66 5.34 206 5Z" fill="#5ED200"/>
<path d="M74 160C74.1444 160.619 74.2887 161.238 74.4375 161.875C74.9315 164.033 74.9315 164.033 76 166C75.1647 165.567 75.1647 165.567 74.3125 165.125C71.9151 163.959 69.484 162.966 67 162C67 161.67 67 161.34 67 161C70.465 160.505 70.465 160.505 74 160Z" fill="#73A683"/>
<path d="M234 156C234.99 156 235.98 156 237 156C235.607 159.367 234.021 160.986 231 163C231.75 158.25 231.75 158.25 234 156Z" fill="#539FDA"/>
<path d="M176 152C177.214 155.642 176.667 156.332 175.062 159.688C174.682 160.496 174.302 161.304 173.91 162.137C173.61 162.752 173.309 163.366 173 164C172.67 164 172.34 164 172 164C171.385 158.924 173.383 156.17 176 152Z" fill="#006400"/>
<path d="M112 127C117.538 127.615 117.538 127.615 119.875 129.562C120.432 130.274 120.432 130.274 121 131C120.01 131.33 119.02 131.66 118 132C114.812 130.125 114.812 130.125 112 128C112 127.67 112 127.34 112 127Z" fill="#57A566"/>
<path d="M114 9C114.99 10.32 115.98 11.64 117 13C116.01 13.495 116.01 13.495 115 14C115.33 15.98 115.66 17.96 116 20C112.967 16.9667 113.335 14.2256 113 10C113.33 9.67 113.66 9.34 114 9Z" fill="#50CC44"/>
<path d="M95 113C97.97 113.495 97.97 113.495 101 114C101.144 114.619 101.289 115.238 101.438 115.875C101.932 118.033 101.932 118.033 103 120C100.05 118.631 97.4753 117.122 95 115C95 114.34 95 113.68 95 113Z" fill="#88C38E"/>
<path d="M178 161C178.66 161.33 179.32 161.66 180 162C179.34 162.66 178.68 163.32 178 164C178.33 164.66 178.66 165.32 179 166C176.69 166.33 174.38 166.66 172 167C175.75 162.125 175.75 162.125 178 161Z" fill="#008402"/>
<path d="M185 128C186 131 186 131 185.312 133.125C184 135 184 135 180 136C181.65 133.36 183.3 130.72 185 128Z" fill="#008114"/>
<path d="M219 66C220.2 69.9606 219.663 72.1747 218 76C216.515 76.99 216.515 76.99 215 78C215.66 75.1545 216.517 72.4767 217.562 69.75C217.967 68.6904 217.967 68.6904 218.379 67.6094C218.584 67.0783 218.789 66.5472 219 66Z" fill="#B8E1B9"/>
<path d="M51 58C51.99 58 52.98 58 54 58C53.67 59.98 53.34 61.96 53 64C52.67 63.34 52.34 62.68 52 62C50.02 62.99 50.02 62.99 48 64C49.875 59.125 49.875 59.125 51 58Z" fill="#568B97"/>
<path d="M175 35C175.66 35 176.32 35 177 35C177.66 38.3 178.32 41.6 179 45C175.483 41.4828 175.453 39.8043 175 35Z" fill="#118B18"/>
<path d="M230 162C229.688 163.875 229.688 163.875 229 166C227.515 166.99 227.515 166.99 226 168C225.34 167.34 224.68 166.68 224 166C227.75 162 227.75 162 230 162Z" fill="#3590D6"/>
<path d="M198.688 159.75C199.781 159.833 200.874 159.915 202 160C198.797 162.834 196.219 163.521 192 164C193.896 160.431 194.52 160.033 198.688 159.75Z" fill="#90C999"/>
<path d="M87 104C89.4375 104.688 89.4375 104.688 92 106C92.8125 108.625 92.8125 108.625 93 111C90 109.188 90 109.188 87 107C87 106.01 87 105.02 87 104Z" fill="#57B064"/>
<path d="M155 54C157.938 54.8125 157.938 54.8125 161 56C161.33 56.99 161.66 57.98 162 59C157.25 58.125 157.25 58.125 155 57C155 56.01 155 55.02 155 54Z" fill="#6DA8E0"/>
<path d="M71 25C71.33 26.32 71.66 27.64 72 29C70.68 29.99 69.36 30.98 68 32C68 28 68 28 69.5 26.25C69.995 25.8375 70.49 25.425 71 25Z" fill="#57D031"/>
<path d="M187 29C186.25 30.9375 186.25 30.9375 185 33C182.875 33.75 182.875 33.75 181 34C181.375 32.0625 181.375 32.0625 182 30C184 29 184 29 187 29Z" fill="#46C421"/>
</g>
<defs>
<clipPath id="clip0_4_8">
<rect width="267" height="226" fill="white"/>
</clipPath>
</defs>
</svg>
